<svg width="42" height="48" viewBox="0 0 42 48" fill="none" xmlns="http://www.w3.org/2000/svg">
<path d="M40.9691 30.51C40.8991 30.42 40.8391 30.32 40.7691 30.23C40.6191 30.02 40.4691 29.8 40.2891 29.59C39.3691 28.54 38.4491 27.5 37.5191 26.46C35.6691 24.37 33.7491 22.2 31.8891 20.05C31.2991 19.37 30.7791 19.04 30.2691 19.04C30.2591 19.04 30.2491 19.04 30.2391 19.04C29.7291 19.05 29.2491 19.38 28.7191 20.06C28.3991 20.47 28.0491 20.85 27.6791 21.26V13.91H28.5491C29.0791 13.91 29.6091 13.92 30.1391 13.9C30.6391 13.89 31.0791 13.68 31.3591 13.32C31.6091 12.99 31.6991 12.58 31.5991 12.16C31.5291 11.88 31.3591 11.58 31.0791 11.26C29.6891 9.67 28.2991 8.09 26.8991 6.51L24.7191 4.05C23.8591 3.07 22.9991 2.09 22.1291 1.12C21.7691 0.72 21.3591 0.51 20.9291 0.5C20.5691 0.51 20.1791 0.67 19.8791 0.99C19.1391 1.78 18.4291 2.6 17.7391 3.4C17.5491 3.62 17.4591 3.88 17.4791 4.14C17.4991 4.4 17.6191 4.65 17.8291 4.82C18.2291 5.16 18.8091 5.13 19.2091 4.74C19.3391 4.62 19.4491 4.48 19.5691 4.35L20.9491 2.79L28.9791 11.89H26.9591C25.9891 11.89 25.6591 12.22 25.6591 13.21V15.22C25.6591 17.9 25.6591 20.58 25.6491 23.25C25.6491 23.41 25.5691 23.62 25.4491 23.76C25.0291 24.27 24.5991 24.76 24.1591 25.24L22.6091 26.99C21.7491 27.96 20.8991 28.92 20.0491 29.89C19.7091 30.28 19.5591 30.73 19.6191 31.17C19.6691 31.55 19.8891 31.89 20.2391 32.11C20.5691 32.32 20.9891 32.37 21.2091 32.37C21.8491 32.39 22.4891 32.39 23.1391 32.38H23.5591V45.43H18.4391V18.9H18.9091C19.5091 18.9 20.1091 18.9 20.6991 18.91C21.4791 18.92 21.9891 18.63 22.2591 18.03C22.6491 17.17 22.0691 16.53 21.8891 16.32C21.0691 15.4 20.2591 14.48 19.4491 13.56L15.4591 9.04L16.0991 8.32C16.4491 7.93 16.7991 7.53 17.1391 7.13C17.5291 6.67 17.4991 6.09 17.0691 5.7C16.6491 5.33 16.0791 5.36 15.6491 5.79C15.5291 5.91 15.4191 6.04 15.3091 6.17L14.1091 7.52L13.9191 7.3C13.5691 6.91 13.2391 6.53 12.8991 6.15C12.5091 5.71 12.0991 5.5 11.6691 5.5C11.2391 5.5 10.8291 5.72 10.4491 6.15L6.36908 10.77C4.72908 12.63 3.07908 14.49 1.43908 16.35C0.959077 16.89 0.839077 17.46 1.09908 18.02C1.36908 18.61 1.88908 18.91 2.61908 18.9C3.22908 18.89 3.82908 18.89 4.45908 18.9H4.94908V23.95C4.94908 31.35 4.94908 38.76 4.93908 46.16C4.93908 46.58 5.00908 47.11 5.51908 47.45L5.59908 47.5H36.3791L36.4591 47.44C36.8491 47.16 37.0391 46.76 37.0391 46.2C37.0291 45.01 37.0291 43.82 37.0291 42.63V41.11C37.0291 41.03 37.0291 40.96 37.0191 40.88C36.9691 40.25 36.5391 39.82 35.9591 39.87C35.3991 39.9 35.0191 40.32 35.0191 40.93C35.0091 41.93 35.0191 42.93 35.0191 43.92V45.46H25.5791V31.75C25.5791 30.72 25.2591 30.4 24.2191 30.4H22.2891L30.3091 21.31L38.3291 30.39H37.6591C37.1491 30.39 36.6291 30.39 36.1191 30.4C35.4091 30.41 35.0291 30.8 35.0291 31.51C35.0191 33.55 35.0191 35.58 35.0291 37.62C35.0291 38.31 35.4091 38.73 36.0191 38.73C36.6291 38.73 37.0191 38.29 37.0291 37.62C37.0391 36.47 37.0391 35.32 37.0291 34.17V32.4H37.8391C37.9791 32.4 38.1291 32.4 38.2691 32.39C38.5791 32.38 38.8791 32.38 39.1691 32.4C40.0991 32.48 40.7191 32.09 41.0091 31.26L41.0291 30.59L40.9691 30.51ZM5.54908 16.89H3.63908L11.6691 7.79L19.6991 16.89H18.0391C16.5791 16.89 16.3891 17.07 16.3891 18.54V45.48H6.94908V18.28C6.94908 17.17 6.65908 16.89 5.54908 16.89Z" fill="black"/>
</svg>
