<svg width="367" height="124" viewBox="0 0 367 124" fill="none" xmlns="http://www.w3.org/2000/svg">
<rect x="30" y="29" width="303" height="65" fill="white"/>
<path d="M22.8516 1.59999C22.5849 2.53333 17.1183 25.4667 10.8516 52.5333C3.11828 85.3333 -0.48172 103.2 0.0516129 105.867C1.38495 112.8 5.91828 118.667 11.9183 121.333C17.3849 123.867 22.5849 124 177.118 124C291.252 124 337.652 123.6 339.918 122.533C341.785 121.733 343.785 119.733 344.585 118.133C347.785 111.2 367.652 22 366.985 18.1333C365.652 11.2 361.118 5.33333 355.118 2.66666C349.652 0.133327 344.318 -6.4671e-06 186.452 -6.4671e-06C57.2516 -6.4671e-06 23.3849 0.399994 22.8516 1.59999ZM89.9183 32.2667C92.9849 33.0667 95.5183 34.1333 95.5183 34.6667C95.5183 35.0667 94.5849 38.4 93.3849 41.8667C91.3849 47.6 90.8516 48.1333 87.9183 47.3333C79.6516 45.3333 76.8516 45.2 72.4516 46.5333C64.9849 49.0667 61.7849 53.6 61.1183 62.4C60.7183 69.2 60.9849 70.4 63.9183 73.0667C67.9183 76.8 76.3183 78.2667 82.3183 76.1333L86.5849 74.6667L85.6516 82.2667C85.1183 86.5333 84.0516 90.2667 83.2516 90.8C80.8516 92.2667 67.1183 93.4667 62.1849 92.5333C47.2516 89.6 39.5183 80 39.5183 64.4C39.6516 47.2 50.8516 34.2667 68.9849 30.8C75.2516 29.6 80.8516 30 89.9183 32.2667ZM142.318 32C144.852 32.6667 148.718 35.0667 150.852 37.3333C156.318 43.0667 156.718 52.4 152.318 71.6C150.452 79.7333 148.852 87.7333 148.852 89.2C148.852 91.7333 148.052 92 140.185 92C131.785 92 131.518 91.8667 131.518 88.5333V85.0667L127.518 88.4C120.585 94.2667 105.918 94.6667 98.9849 89.2C94.7183 85.8667 92.1849 77.7333 93.3849 71.4667C94.5849 65.4667 101.252 58.5333 108.318 56.2667C111.118 55.3333 118.718 54.1333 125.252 53.7333C131.652 53.3333 136.852 52.5333 136.852 52.1333C136.852 49.4667 132.185 45.3333 128.452 44.6667C124.585 43.8667 115.385 45.3333 109.785 47.4667C108.052 48.1333 107.518 47.4667 107.518 44.9333C107.518 36.8 109.118 33.3333 113.385 32.1333C119.118 30.4 136.452 30.4 142.318 32ZM211.385 31.8667C212.985 32.9333 212.852 34.4 210.852 41.6L208.585 50.2667L203.385 48.8C199.252 47.7333 197.385 47.8667 193.785 49.6C188.052 52.4 185.518 57.6 182.185 74.2667C178.185 93.7333 179.518 92 168.052 92C162.585 92 158.185 91.4667 158.185 90.8C158.185 90.2667 160.585 78.2667 163.518 64.1333C166.452 50.1333 168.852 37.0667 168.852 35.3333C168.852 32.1333 169.118 32 178.718 32H188.718L187.918 36.9333L187.252 42L189.518 38.9333C194.585 32.1333 205.918 28.4 211.385 31.8667ZM255.518 32.1333C265.252 34.2667 264.852 33.7333 262.452 41.3333C260.585 47.2 259.918 48 257.518 47.3333C252.718 45.7333 242.452 44.9333 238.985 45.8667C236.718 46.4 235.518 47.6 235.518 49.3333C235.518 51.4667 237.918 53.2 245.385 56.5333C256.185 61.4667 259.518 65.0667 259.518 71.7333C259.518 84.2667 250.585 92 234.985 93.0667C224.718 93.7333 212.052 92.6667 209.118 90.8C207.918 90 207.918 88.4 209.652 82.8C211.252 77.2 212.185 76 213.918 76.6667C218.852 78.5333 229.118 79.8667 232.852 79.2C241.918 77.3333 240.585 71.4667 230.185 68C221.785 65.2 216.852 60.2667 215.918 53.7333C215.518 50.4 215.918 46.4 216.852 44C221.118 33.8667 238.852 28.4 255.518 32.1333ZM318.052 34.8C328.585 40.6667 329.652 47.8667 323.652 75.3333L320.052 92.6667H312.052C304.985 92.6667 304.185 92.4 303.785 89.7333L303.385 86.8L298.852 89.8667C290.985 95.2 278.852 95.3333 270.852 90.1333C266.852 87.4667 264.185 79.2 265.385 72.8C267.518 61.4667 279.785 54.6667 298.185 54.6667C309.785 54.6667 310.852 53.8667 305.518 48.6667C301.785 44.8 294.052 44.2667 285.518 47.3333C282.585 48.4 280.052 49.3333 279.918 49.3333C279.252 49.3333 279.785 40.5333 280.718 37.3333C281.518 34.5333 282.985 33.7333 288.852 32.4C298.852 30.1333 311.785 31.2 318.052 34.8Z" fill="#FF0000"/>
<path d="M117.118 66.9336C113.518 68.667 111.918 74.0003 114.185 76.667C116.318 79.3336 123.518 79.2003 127.252 76.5336C129.785 74.8003 134.185 68.1336 134.185 66.0003C134.185 64.8003 120.185 65.467 117.118 66.9336Z" fill="#FF0000"/>
<path d="M293.251 66.6701C287.118 68.0034 284.585 70.5367 285.118 74.5367C286.051 82.5367 299.651 80.6701 304.185 71.8701C306.051 68.4034 306.185 67.4701 304.585 66.5367C302.585 65.2034 299.118 65.2034 293.251 66.6701Z" fill="#FF0000"/>
</svg>
