<svg width="496" height="262" viewBox="0 0 496 262" fill="none" xmlns="http://www.w3.org/2000/svg">
<path d="M232.333 2C213.8 4.26666 191.133 12.8 175.4 23.4667C166.2 29.7333 150.333 45.3333 143.667 54.6667C138.867 61.4667 127 83.2 127 85.3333C127 85.7333 130.333 86 134.333 86H141.667L145.133 78.9333C153.667 62 172.067 41.8667 187.667 32.4C225.133 9.73333 271.933 10.1333 308.733 33.3333C314.2 36.8 314.333 37.0667 314.333 44C314.333 55.4667 322.333 63.8667 333.533 64.1333C337 64.1333 340.467 64.6667 341.4 65.2C342.333 65.7333 345.533 70.6667 348.467 76.1333L353.933 86H361.267C368.2 86 368.467 85.8667 367.533 82.9333C366.333 78.8 362.2 70.6667 356.733 61.7333C352.467 54.6667 352.333 53.7333 353.667 48.9333C358.2 34.2667 343.4 19.8667 328.6 24.4C324.2 25.7333 323.133 25.6 318.867 22.8C303.267 12.4 280.6 4.13333 261.933 2C249 0.533329 245 0.533329 232.333 2ZM341.667 35.3333C347.533 41.2 346.2 49.7333 338.867 53.8667C328.067 59.8667 316.733 43.0667 326.467 35.4667C331 31.8667 338.2 31.8667 341.667 35.3333Z" fill="#095AA5"/>
<path d="M482.334 79.199C481.934 79.8657 481.667 84.6657 481.801 89.7323C481.934 94.9323 481.534 99.7323 481.134 100.532C480.601 101.466 475.801 101.999 469.401 101.999C461.134 101.999 457.134 102.666 452.867 104.799C434.334 113.732 430.734 136.666 445.267 151.599C459.267 165.999 481.934 161.866 491.801 143.332C494.067 139.199 494.334 134.932 494.734 108.266L495.134 77.999H489.134C485.801 77.999 482.867 78.5323 482.334 79.199ZM481.667 124.666C481.667 141.732 476.067 148.399 463.134 146.932C451.934 145.732 445.534 133.999 450.467 123.732C453.934 116.666 459.934 113.999 472.067 113.999H481.667V124.666Z" fill="#095AA5"/>
<path d="M17.0002 104.532C10.4669 107.465 3.80022 114.798 1.66689 121.465C0.733553 124.398 0.333553 129.598 0.733553 134.265C1.93355 147.332 9.53355 155.865 23.2669 159.465C28.6002 160.932 30.6002 160.798 36.7336 158.932C40.6002 157.732 46.2002 154.665 49.1336 152.132L54.3336 147.598L49.8002 142.798C47.2669 140.132 44.7336 138.665 44.3336 139.332C41.8002 143.465 34.2002 147.332 28.6002 147.332C23.5336 147.332 21.9336 146.665 17.5336 142.132C13.0002 137.732 12.3336 136.132 12.3336 131.065C12.3336 124.265 15.5336 119.198 21.6669 115.998C28.6002 112.398 36.4669 114.132 42.2002 120.532L44.8669 123.332L49.2669 119.065L53.6669 114.798L49.9336 110.932C42.0669 102.398 27.6669 99.5984 17.0002 104.532Z" fill="#095AA5"/>
<path d="M77.6672 103.732C63.8005 110.399 57.1339 123.866 60.8672 138.132C66.6006 159.999 91.2672 167.199 109.001 152.132L114.334 147.599L110.467 143.466C108.201 141.199 105.934 139.332 105.267 139.332C104.601 139.332 101.934 141.066 99.4006 143.332C96.4672 145.999 93.5339 147.332 90.6006 147.332C81.9339 147.332 82.6006 145.732 98.3339 129.999L113.667 114.799L109.934 110.932C107.934 108.799 103.934 105.866 101.001 104.532C95.0006 101.732 82.8672 101.332 77.6672 103.732ZM93.1339 115.466C94.0672 117.199 76.7339 135.332 74.0672 135.332C73.0006 135.332 72.3339 133.466 72.3339 130.132C72.3339 124.399 77.0006 117.332 82.2006 115.332C86.2006 113.732 92.0672 113.732 93.1339 115.466Z" fill="#095AA5"/>
<path d="M134.867 105.064C125.933 109.731 120.733 118.264 119.667 130.264C119.267 135.597 119 144.531 119.267 149.997L119.667 159.997H125.667H131.667L132.333 141.997C133 122.264 134.067 119.331 141.133 115.997C147 113.331 152.2 113.464 157.4 116.664C164.067 120.797 165.667 126.131 165.667 144.664V160.664H171.667H177.667V143.597C177.667 123.997 176.6 119.197 170.867 112.264C162.2 101.731 147 98.7974 134.867 105.064Z" fill="#095AA5"/>
<path d="M200.201 104.666C194.734 107.466 187.401 115.332 185.534 120.266C184.867 121.999 184.334 126.932 184.334 131.199C184.334 145.199 192.867 155.866 207.267 159.599C212.601 160.932 214.601 160.799 220.601 158.932C224.467 157.732 230.067 154.666 233.001 152.132L238.334 147.599L233.801 142.799L229.267 138.132L224.067 142.666C219.801 146.532 217.934 147.332 212.867 147.332C207.534 147.332 206.067 146.666 201.534 142.132C197.001 137.599 196.334 136.132 196.334 130.932C196.334 125.999 197.134 123.866 200.467 120.132C207.267 112.399 216.467 111.999 224.734 119.332L229.267 123.199L233.401 118.932L237.667 114.532L233.401 110.266C224.734 101.999 210.067 99.4656 200.201 104.666Z" fill="#095AA5"/>
<path d="M263 102.932C257.8 104.799 250.466 111.066 247.266 116.399C243 123.866 242.466 135.999 246.2 143.332C255.666 161.866 278.733 165.999 292.733 151.599C311.4 132.399 299 101.732 272.733 102.132C268.466 102.132 264.066 102.532 263 102.932ZM281.8 117.066C287.133 120.666 290.6 128.932 289.133 134.666C288.6 136.666 286.2 140.399 283.666 142.932C280.066 146.532 278.2 147.332 273.8 147.332C266.733 147.332 260.866 144.399 258.333 139.332C250.2 123.599 267.4 107.332 281.8 117.066Z" fill="#095AA5"/>
<path d="M316.067 104.131C311.134 106.664 308.334 112.531 308.334 119.597C308.467 126.531 310.601 130.664 315.801 134.131C319.001 136.131 322.067 136.664 333.267 136.664C348.201 136.664 353.667 137.997 353.667 141.731C353.667 146.664 351.134 147.331 332.067 147.331H313.667V153.997V160.664H332.467C353.667 160.664 358.867 159.197 363.134 152.131C368.067 144.131 365.134 131.464 357.401 127.064C355.534 125.997 347.934 125.064 338.467 124.664C325.267 124.131 322.334 123.597 321.134 121.597C320.067 119.997 320.067 118.664 321.134 116.931C322.467 114.931 325.267 114.664 341.534 114.264L360.334 113.864V107.997V101.997H340.067C324.601 102.131 318.734 102.531 316.067 104.131Z" fill="#095AA5"/>
<path d="M372.334 119.86C372.334 136.793 372.467 137.993 376.067 144.793C386.201 164.26 413.134 165.46 425.401 147.06C428.867 141.727 429.001 140.66 429.401 121.727L429.801 101.993H423.801H417.667V118.793C417.667 137.193 416.467 141.06 409.667 145.193C404.467 148.26 396.201 147.993 391.801 144.527C385.534 139.593 384.334 135.46 384.334 117.993V101.993H378.334H372.334V119.86Z" fill="#095AA5"/>
<path d="M127 179.33C127 181.73 135 196.797 141 205.997C148.467 217.197 165 233.197 177.267 241.197C228.867 274.53 297.8 266.264 339.8 221.73C351 209.73 363.133 191.197 366.2 180.93C367.133 178.13 366.867 177.997 359.933 177.997H352.6L347.267 187.597C335.533 208.797 318.6 224.93 297 235.33C277.4 244.93 269.933 246.53 247 246.664C226.6 246.664 219 245.33 202.733 238.797C179.667 229.464 156.867 208.664 145.267 186.397L141 177.997H134.067C130.067 177.997 127 178.664 127 179.33Z" fill="#095AA5"/>
</svg>
