<svg width="895" height="245" viewBox="0 0 895 245" fill="none" xmlns="http://www.w3.org/2000/svg">
<path d="M488.87 72.29C485.83 65.3 481.67 59.1 476.51 53.85C471.35 48.6 465.29 44.37 458.52 41.27C451.62 38.12 444.26 36.52 436.61 36.52L436.39 36.53C428.32 36.85 420.71 38.58 413.78 41.68C406.84 44.78 400.73 48.98 395.63 54.18C390.51 59.4 386.44 65.56 383.55 72.5C380.63 79.49 379.15 87.07 379.15 95.05C379.15 103.33 380.67 111.11 383.67 118.17C386.65 125.21 390.8 131.38 396.02 136.54C401.2 141.66 407.29 145.71 414.12 148.59C420.98 151.48 428.42 152.94 436.24 152.94C444.24 152.94 451.82 151.39 458.76 148.33C465.67 145.3 471.76 141.07 476.87 135.78C481.96 130.52 486.04 124.35 489 117.44C492.01 110.43 493.53 102.9 493.53 95.04C493.52 87.04 491.95 79.39 488.87 72.29ZM467.26 95.05C467.26 99.36 466.45 103.45 464.87 107.2C463.25 111.02 461.01 114.4 458.21 117.26C455.41 120.11 452.07 122.38 448.28 124.02C444.53 125.64 440.48 126.46 436.24 126.46C432.01 126.46 428 125.64 424.33 124.03C420.6 122.39 417.28 120.11 414.47 117.25C411.67 114.4 409.43 111.01 407.81 107.19C406.22 103.45 405.42 99.36 405.42 95.04C405.42 90.71 406.23 86.57 407.83 82.74C409.44 78.88 411.67 75.48 414.47 72.62C417.28 69.76 420.6 67.48 424.33 65.84C428.01 64.23 432.01 63.41 436.24 63.41C440.48 63.41 444.53 64.23 448.29 65.86C452.08 67.49 455.42 69.77 458.22 72.61C461.02 75.47 463.26 78.87 464.87 82.73C466.45 86.58 467.26 90.72 467.26 95.05Z" fill="white"/>
<path d="M769.19 72.29C766.15 65.3 761.99 59.1 756.83 53.85C751.67 48.6 745.61 44.37 738.84 41.27C731.94 38.12 724.58 36.52 716.93 36.52L716.71 36.53C708.64 36.85 701.03 38.58 694.1 41.68C687.16 44.78 681.05 48.98 675.95 54.18C670.83 59.4 666.76 65.56 663.87 72.5C660.95 79.49 659.47 87.07 659.47 95.05C659.47 103.33 660.99 111.11 663.99 118.17C666.97 125.21 671.12 131.38 676.34 136.54C681.52 141.66 687.61 145.71 694.44 148.59C701.3 151.48 708.74 152.94 716.56 152.94C724.56 152.94 732.14 151.39 739.08 148.33C745.99 145.3 752.08 141.07 757.19 135.78C762.28 130.52 766.36 124.35 769.32 117.44C772.33 110.43 773.85 102.9 773.85 95.04C773.84 87.04 772.27 79.39 769.19 72.29ZM747.58 95.05C747.58 99.36 746.77 103.45 745.19 107.2C743.57 111.02 741.33 114.4 738.53 117.26C735.73 120.11 732.39 122.38 728.6 124.02C724.85 125.64 720.8 126.46 716.56 126.46C712.33 126.46 708.32 125.64 704.65 124.03C700.92 122.39 697.6 120.11 694.79 117.25C691.99 114.4 689.75 111.01 688.13 107.19C686.54 103.45 685.74 99.36 685.74 95.04C685.74 90.71 686.55 86.57 688.15 82.74C689.76 78.88 691.99 75.48 694.79 72.62C697.6 69.76 700.92 67.48 704.65 65.84C708.33 64.23 712.33 63.41 716.56 63.41C720.8 63.41 724.85 64.23 728.61 65.86C732.4 67.49 735.74 69.77 738.54 72.61C741.34 75.47 743.58 78.87 745.19 82.73C746.77 86.58 747.58 90.72 747.58 95.05Z" fill="white"/>
<path d="M512.45 0C505.17 0 499.24 5.91999 499.24 13.21V139.74C499.24 147.02 505.16 152.94 512.45 152.94C519.73 152.94 525.65 147.02 525.65 139.74V13.2C525.66 5.91998 519.73 0 512.45 0Z" fill="white"/>
<path d="M855.15 94.8L890.55 59.4C893.04 56.91 894.42 53.59 894.42 50.06C894.42 46.53 893.05 43.22 890.55 40.72C888.06 38.23 884.74 36.85 881.21 36.85C877.68 36.85 874.37 38.22 871.87 40.72L836.47 76.12L801.07 40.72C795.92 35.57 787.54 35.57 782.4 40.72C779.91 43.21 778.53 46.53 778.53 50.06C778.53 53.59 779.9 56.9 782.4 59.4L817.8 94.8L782.4 130.2C777.25 135.35 777.25 143.73 782.4 148.87C784.97 151.44 788.36 152.73 791.74 152.73C795.12 152.73 798.5 151.44 801.08 148.87L836.48 113.47L871.88 148.87C874.37 151.36 877.69 152.74 881.22 152.74C884.75 152.74 888.06 151.37 890.56 148.87C895.71 143.72 895.71 135.34 890.56 130.2L855.15 94.8Z" fill="white"/>
<path d="M649.09 72.29C646.05 65.3 641.89 59.09 636.73 53.84C631.57 48.59 625.51 44.35 618.74 41.27C611.84 38.12 604.48 36.52 596.83 36.52L596.61 36.53C588.54 36.85 580.94 38.58 574 41.68C567.79 44.45 562.24 48.11 557.48 52.58V13.21C557.48 5.93002 551.56 0.0100098 544.27 0.0100098C536.98 0.0100098 531.06 5.93002 531.06 13.21V139.74C531.06 147.02 536.98 152.94 544.27 152.94C551.56 152.94 557.48 147.02 557.48 139.74V137.73C562.38 142.29 568.04 145.94 574.33 148.59C581.19 151.48 588.63 152.94 596.45 152.94C604.45 152.94 612.03 151.39 618.97 148.33C625.88 145.3 631.97 141.07 637.08 135.78C642.17 130.52 646.24 124.35 649.21 117.44C652.22 110.43 653.74 102.9 653.74 95.04C653.74 87.04 652.18 79.38 649.09 72.29ZM627.48 95.05C627.48 99.36 626.68 103.45 625.09 107.2C623.47 111.02 621.23 114.4 618.43 117.26C615.63 120.11 612.29 122.38 608.5 124.02C604.75 125.64 600.7 126.46 596.46 126.46C592.23 126.46 588.22 125.64 584.55 124.03C580.82 122.39 577.5 120.12 574.69 117.25C571.89 114.4 569.65 111.02 568.03 107.19C566.44 103.45 565.64 99.36 565.64 95.04C565.64 90.71 566.45 86.57 568.05 82.74C569.66 78.88 571.89 75.48 574.69 72.62C577.5 69.76 580.82 67.48 584.55 65.84C588.23 64.23 592.23 63.41 596.46 63.41C600.7 63.41 604.75 64.23 608.51 65.86C612.3 67.49 615.64 69.77 618.44 72.61C621.24 75.47 623.48 78.87 625.09 82.73C626.67 86.58 627.48 90.72 627.48 95.05Z" fill="white"/>
<path d="M250.43 117.49C247.88 115.22 244.79 114.02 241.49 114.02C237.9 114.02 234.7 115.32 232.27 117.77C229.29 120.63 225.85 122.89 222.04 124.5C218.3 126.08 214.18 126.88 209.8 126.88C205.43 126.88 201.29 126.05 197.49 124.42C193.63 122.76 190.21 120.45 187.31 117.55C184.42 114.66 182.11 111.23 180.44 107.37C178.8 103.58 177.97 99.44 177.97 95.07C177.97 90.69 178.81 86.5 180.45 82.62C182.11 78.7 184.41 75.25 187.3 72.37C190.2 69.47 193.62 67.16 197.48 65.5C201.28 63.86 205.42 63.03 209.79 63.03C214.18 63.03 218.3 63.83 222.04 65.41C225.9 67.04 229.37 69.19 232.3 71.74C234.79 74.17 237.97 75.45 241.49 75.45C244.66 75.45 247.63 74.29 250.1 72.09C252.8 69.7 254.22 66.61 254.22 63.15C254.22 60.38 252.95 57.57 250.1 54.03C247.92 51.33 244.88 48.65 241.06 46.07C237.36 43.58 232.94 41.36 227.93 39.48C222.64 37.5 216.68 36.5 210.18 36.5L209.98 36.51C201.76 36.83 194.01 38.56 186.95 41.66C179.88 44.76 173.66 48.96 168.47 54.16C163.25 59.38 159.11 65.55 156.16 72.49C153.18 79.48 151.68 87.07 151.68 95.07C151.68 103.36 153.23 111.14 156.28 118.21C159.31 125.25 163.55 131.43 168.86 136.58C174.14 141.7 180.34 145.76 187.29 148.63C194.27 151.52 201.84 152.98 209.81 152.98C216.62 152.98 222.81 152.08 228.23 150.3C233.53 148.56 238.11 146.44 241.85 144C245.82 141.41 248.79 138.76 250.92 135.89C253.51 132.39 254.66 129.65 254.66 126.97C254.64 123.23 253.19 119.96 250.43 117.49Z" fill="white"/>
<path d="M369.16 72.29C366.11 65.3 361.96 59.1 356.8 53.85C351.64 48.6 345.58 44.37 338.81 41.27C331.91 38.12 324.55 36.52 316.9 36.52L316.68 36.53C308.61 36.85 301 38.58 294.07 41.68C287.13 44.78 281.03 48.98 275.92 54.18C270.8 59.4 266.73 65.56 263.84 72.5C260.92 79.49 259.44 87.07 259.44 95.05C259.44 103.33 260.96 111.11 263.96 118.17C266.94 125.21 271.09 131.38 276.31 136.54C281.49 141.66 287.58 145.71 294.41 148.59C301.27 151.48 308.71 152.94 316.53 152.94C324.53 152.94 332.11 151.39 339.05 148.33C345.95 145.3 352.05 141.07 357.16 135.78C362.25 130.52 366.33 124.35 369.29 117.44C372.3 110.43 373.82 102.9 373.82 95.04C373.81 87.04 372.24 79.39 369.16 72.29ZM347.55 95.05C347.55 99.36 346.74 103.45 345.16 107.2C343.54 111.02 341.3 114.4 338.5 117.26C335.7 120.11 332.36 122.38 328.57 124.02C324.82 125.64 320.77 126.46 316.53 126.46C312.3 126.46 308.29 125.64 304.62 124.03C300.89 122.39 297.57 120.11 294.76 117.25C291.95 114.4 289.72 111.01 288.1 107.19C286.51 103.45 285.71 99.36 285.71 95.04C285.71 90.71 286.52 86.57 288.12 82.74C289.73 78.88 291.96 75.48 294.76 72.62C297.57 69.76 300.89 67.48 304.62 65.84C308.3 64.23 312.3 63.41 316.53 63.41C320.77 63.41 324.82 64.23 328.58 65.86C332.37 67.49 335.71 69.77 338.51 72.61C341.31 75.47 343.55 78.87 345.16 82.73C346.74 86.58 347.55 90.72 347.55 95.05Z" fill="white"/>
<path d="M133.47 50.37L77.9 19.86C73.33 17.36 67.64 17.36 63.05 19.86L7.46 50.37C5.19 51.62 3.31 53.41 1.99 55.59C0.679998 57.78 0 60.24 0 62.7V123.72C0.01 128.79 2.87 133.5 7.47 136.03L63.05 166.53C65.33 167.79 67.9 168.41 70.47 168.41C73.04 168.41 75.6 167.78 77.9 166.53L133.46 136.03C135.72 134.8 137.61 133 138.93 130.83C140.24 128.68 140.94 126.22 140.94 123.7V62.69C140.94 57.62 138.08 52.89 133.47 50.37ZM119.57 123.95L111.55 122.18C107.94 121.34 104.37 122.29 101.72 123.83L75.27 139.12C72.62 140.66 68.24 140.66 65.59 139.13L32.93 120.24C30.27 118.7 28.1 114.92 28.1 111.84V74.08C28.1 71.01 30.27 67.23 32.93 65.69L65.61 46.8C68.27 45.26 72.62 45.26 75.28 46.8L107.92 65.69C110.57 67.23 112.76 71.01 112.75 74.08V103.87C112.76 106.94 113.49 111.65 116.04 114.32L121.69 120.29C124.05 122.75 122.85 124.76 119.57 123.95Z" fill="#E2152D"/>
<path d="M281.66 213.16C281.66 220.28 276.62 224.85 269.31 224.85H265.02V234.89H256.72V201.41H269.31C276.61 201.42 281.66 205.9 281.66 213.16ZM273.27 213.16C273.27 209.91 271.15 209.01 268.56 209.01H265.02V217.26H268.56C271.15 217.26 273.27 216.46 273.27 213.16Z" fill="#E6B925"/>
<path d="M304.1 210.14V217.92C303.49 217.78 302.97 217.73 302.31 217.73C297.41 217.73 294.77 220.94 294.77 225.37V234.89H286.61V210.38H294.77V217.08C295.57 213.03 297.93 209.91 302.27 209.91C302.83 209.91 303.44 209.95 304.1 210.14Z" fill="#E6B925"/>
<path d="M331.54 225.8H314.9C315.89 227.78 318.01 228.77 320.84 228.77C322.82 228.77 324.61 228.39 326.4 227.17L329.98 230.99C328 233.49 324.56 235.37 319.94 235.37C313.06 235.37 306.93 230.75 306.93 222.69C306.93 214.39 313.15 209.91 319.52 209.91C325.74 209.91 333.24 214.2 331.54 225.8ZM314.61 220.04H324.37C323.8 217.73 321.68 216.69 319.61 216.69C317.54 216.69 315.46 217.73 314.61 220.04Z" fill="#E6B925"/>
<path d="M335.31 222.59C335.31 214.29 341.86 209.91 348.47 209.91C352.81 209.91 356.58 211.89 359.08 215.95L353.19 219.82C352.11 218.45 350.6 217.23 348.48 217.23C345.65 217.23 343.34 219.4 343.34 222.61C343.34 225.91 345.65 228.08 348.48 228.08C350.6 228.08 352.11 226.85 353.19 225.49L359.08 229.36C356.58 233.32 352.81 235.4 348.47 235.4C341.86 235.37 335.31 230.98 335.31 222.59Z" fill="#E6B925"/>
<path d="M363.78 201.42H371.94V208.45H363.78V201.42ZM363.78 210.38H371.94V234.9H363.78V210.38Z" fill="#E6B925"/>
<path d="M376.65 222.64C376.65 214.29 383.3 209.91 389.76 209.91C396.17 209.91 402.82 214.29 402.82 222.64C402.82 230.99 396.17 235.37 389.76 235.37C383.3 235.37 376.65 230.98 376.65 222.64ZM394.8 222.64C394.8 219.39 392.54 217.22 389.76 217.22C386.93 217.22 384.67 219.39 384.67 222.64C384.67 225.89 386.93 228.06 389.76 228.06C392.54 228.06 394.8 225.89 394.8 222.64Z" fill="#E6B925"/>
<path d="M405.41 228.29L411.82 226.54C412.15 227.39 412.72 229.04 414.88 229.04C416.01 229.04 416.96 228.52 416.96 227.48C416.96 226.96 416.68 226.3 415.4 225.92L411.82 224.6C407.77 223.18 406.02 220.5 406.02 217.34C406.02 212.63 410.31 209.89 415.26 209.89C420.07 209.89 423.56 212.62 424.36 216.73L417.99 218.29C417.47 216.4 416.29 216.12 415.59 216.12C414.32 216.12 413.89 216.97 413.89 217.49C413.89 218.06 414.22 218.72 415.63 219.09L418.98 220.32C421.34 221.07 424.97 222.91 424.97 227.49C424.97 232.44 420.73 235.36 415.02 235.36C409.98 235.37 406.16 233.1 405.41 228.29Z" fill="#E6B925"/>
<path d="M467.5 222.64C467.5 231.22 461.37 235.37 455.85 235.37C451.61 235.37 449.3 233.01 449.11 232.59H448.97V234.9H440.81V201.42H448.97V212.69H449.11C449.3 212.27 451.61 209.91 455.85 209.91C461.37 209.91 467.5 214.05 467.5 222.64ZM459.49 222.64C459.49 219.2 456.99 217.12 454.16 217.12C451.24 217.12 448.78 219.15 448.78 222.64C448.78 226.13 451.23 228.16 454.16 228.16C456.99 228.15 459.49 226.08 459.49 222.64Z" fill="#E6B925"/>
<path d="M471.03 222.64C471.03 214.06 477.16 209.91 482.63 209.91C486.92 209.91 489.23 212.27 489.42 212.69H489.56V210.38H497.72V234.9H489.56V232.59H489.42C489.23 233.01 486.92 235.37 482.63 235.37C477.16 235.37 471.03 231.22 471.03 222.64ZM489.75 222.64C489.75 219.15 487.3 217.12 484.37 217.12C481.54 217.12 479.04 219.19 479.04 222.64C479.04 226.08 481.54 228.16 484.37 228.16C487.3 228.15 489.75 226.13 489.75 222.64Z" fill="#E6B925"/>
<path d="M497.29 236.5H498.89C502.14 236.5 503.75 235.7 503.75 231.64V210.38H511.91V232.49C511.91 240.36 508.33 243.99 499.37 243.99H497.3V236.5H497.29ZM503.75 201.42H511.91V208.45H503.75V201.42Z" fill="#E6B925"/>
<path d="M516.62 222.64C516.62 214.29 523.27 209.91 529.73 209.91C536.14 209.91 542.79 214.29 542.79 222.64C542.79 230.99 536.14 235.37 529.73 235.37C523.27 235.37 516.62 230.98 516.62 222.64ZM534.78 222.64C534.78 219.39 532.52 217.22 529.74 217.22C526.91 217.22 524.65 219.39 524.65 222.64C524.65 225.89 526.91 228.06 529.74 228.06C532.51 228.06 534.78 225.89 534.78 222.64Z" fill="#E6B925"/>
<path d="M545.38 228.29L551.79 226.54C552.12 227.39 552.69 229.04 554.85 229.04C555.98 229.04 556.93 228.52 556.93 227.48C556.93 226.96 556.65 226.3 555.37 225.92L551.79 224.6C547.74 223.18 545.99 220.5 545.99 217.34C545.99 212.63 550.28 209.89 555.23 209.89C560.04 209.89 563.53 212.62 564.33 216.73L557.96 218.29C557.44 216.4 556.26 216.12 555.56 216.12C554.29 216.12 553.86 216.97 553.86 217.49C553.86 218.06 554.19 218.72 555.6 219.09L558.95 220.32C561.31 221.07 564.94 222.91 564.94 227.49C564.94 232.44 560.7 235.36 554.99 235.36C549.95 235.37 546.14 233.1 545.38 228.29Z" fill="#E6B925"/>
<path d="M579.61 222.59C579.61 214.29 586.16 209.91 592.77 209.91C597.11 209.91 600.88 211.89 603.38 215.95L597.49 219.82C596.41 218.45 594.9 217.23 592.78 217.23C589.95 217.23 587.64 219.4 587.64 222.61C587.64 225.91 589.95 228.08 592.78 228.08C594.9 228.08 596.41 226.85 597.49 225.49L603.38 229.36C600.88 233.32 597.11 235.4 592.77 235.4C586.16 235.37 579.61 230.98 579.61 222.59Z" fill="#E6B925"/>
<path d="M606.15 222.64C606.15 214.29 612.8 209.91 619.26 209.91C625.67 209.91 632.32 214.29 632.32 222.64C632.32 230.99 625.67 235.37 619.26 235.37C612.8 235.37 606.15 230.98 606.15 222.64ZM624.3 222.64C624.3 219.39 622.04 217.22 619.26 217.22C616.43 217.22 614.17 219.39 614.17 222.64C614.17 225.89 616.43 228.06 619.26 228.06C622.04 228.06 624.3 225.89 624.3 222.64Z" fill="#E6B925"/>
<path d="M661.27 220.47V234.9H653.11V221.88C653.11 219.33 651.88 217.12 649.1 217.12C646.37 217.12 645.19 219.34 645.19 221.88V234.89H637.03V210.38H645.19V213.26C646.6 211.28 648.91 209.91 652.17 209.91C657.12 209.91 661.27 212.97 661.27 220.47Z" fill="#E6B925"/>
<path d="M703.79 210.38V232.68C703.79 242.63 695.92 244.7 690.49 244.7C687.99 244.7 685.02 244.37 683.37 243.29V236.83C684.55 237.58 687 237.96 688.93 237.96C693.5 237.96 695.63 235.74 695.63 233.39V232.59H695.35C695.16 233.01 692.95 235.37 688.8 235.37C683.28 235.37 677.11 231.17 677.11 222.64C677.11 214.11 683.29 209.91 688.8 209.91C692.95 209.91 695.17 212.27 695.35 212.69H695.63V210.38H703.79ZM695.82 222.64C695.82 219.15 693.42 217.12 690.49 217.12C687.61 217.12 685.11 219.19 685.11 222.64C685.11 226.08 687.61 228.16 690.49 228.16C693.42 228.15 695.82 226.13 695.82 222.64Z" fill="#E6B925"/>
<path d="M708.5 222.64C708.5 214.06 714.63 209.91 720.1 209.91C724.39 209.91 726.7 212.27 726.89 212.69H727.03V210.38H735.19V234.9H727.03V232.59H726.89C726.7 233.01 724.39 235.37 720.1 235.37C714.63 235.37 708.5 231.22 708.5 222.64ZM727.22 222.64C727.22 219.15 724.77 217.12 721.84 217.12C719.01 217.12 716.51 219.19 716.51 222.64C716.51 226.08 719.01 228.16 721.84 228.16C724.77 228.15 727.22 226.13 727.22 222.64Z" fill="#E6B925"/>
<path d="M758.57 210.14V217.92C757.96 217.78 757.44 217.73 756.78 217.73C751.88 217.73 749.24 220.94 749.24 225.37V234.89H741.08V210.38H749.24V217.08C750.04 213.03 752.4 209.91 756.74 209.91C757.3 209.91 757.91 209.95 758.57 210.14Z" fill="#E6B925"/>
<path d="M761.4 222.64C761.4 214.06 767.53 209.91 773 209.91C777.29 209.91 779.6 212.27 779.79 212.69H779.93V210.38H788.09V234.9H779.93V232.59H779.79C779.6 233.01 777.29 235.37 773 235.37C767.53 235.37 761.4 231.22 761.4 222.64ZM780.12 222.64C780.12 219.15 777.67 217.12 774.74 217.12C771.91 217.12 769.41 219.19 769.41 222.64C769.41 226.08 771.91 228.16 774.74 228.16C777.66 228.15 780.12 226.13 780.12 222.64Z" fill="#E6B925"/>
<path d="M818.21 220.47V234.9H810.05V221.88C810.05 219.33 808.82 217.12 806.04 217.12C803.31 217.12 802.13 219.34 802.13 221.88V234.89H793.97V210.38H802.13V213.26C803.54 211.28 805.85 209.91 809.11 209.91C814.06 209.91 818.21 212.97 818.21 220.47Z" fill="#E6B925"/>
<path d="M839.38 227.63V233.81C838.44 234.85 836.22 235.18 834.38 235.18C829.48 235.18 825.94 232.82 825.94 226.69V216.79H822.21V210.38H825.94V204.11H834.1V210.38H839.28V216.79H834.09V225.47C834.09 226.6 834.75 228.02 837.06 228.02C837.63 228.01 838.53 227.92 839.38 227.63Z" fill="#E6B925"/>
<path d="M844.23 210.38H852.39V234.9H844.23V210.38ZM848.19 200H855.26L851.68 207.45H845.13L848.19 200Z" fill="#E6B925"/>
<path d="M857.1 222.64C857.1 214.06 863.23 209.91 868.7 209.91C872.99 209.91 875.3 212.27 875.49 212.69H875.63V210.38H883.79V234.9H875.63V232.59H875.49C875.3 233.01 872.99 235.37 868.7 235.37C863.23 235.37 857.1 231.22 857.1 222.64ZM875.82 222.64C875.82 219.15 873.37 217.12 870.44 217.12C867.61 217.12 865.11 219.19 865.11 222.64C865.11 226.08 867.61 228.16 870.44 228.16C873.37 228.15 875.82 226.13 875.82 222.64Z" fill="#E6B925"/>
</svg>
