<svg width="118" height="70" viewBox="0 0 118 70" fill="none" xmlns="http://www.w3.org/2000/svg">
<g clip-path="url(#clip0_78_5301)">
<path d="M18.3719 44.4387L2.77223 37.3906C1.75418 39.8653 0.673479 42.5592 0 45.1435L18.043 45.2688C18.1369 45.0338 18.2622 44.6736 18.3719 44.4387Z" fill="black"/>
<path d="M40.064 28.086C41.3326 27.8981 42.6326 27.7884 43.9482 27.7571L43.9796 1.82031C41.129 2.55643 38.2941 3.63713 35.5846 4.78048C34.7388 5.14071 32.8906 5.86118 32.0605 6.25274L38.5604 28.321C38.9833 28.227 39.5158 28.1487 40.064 28.086Z" fill="black"/>
<path d="M36.1489 28.8161L29.8996 7.60938C28.349 8.4708 26.7828 9.52017 25.3262 10.5226C23.9009 11.4936 22.554 12.402 21.207 13.4827L31.0586 30.8679C32.6718 30.0378 34.379 29.3487 36.1489 28.8161Z" fill="black"/>
<path d="M28.8326 32.1408L18.2919 15.6641C17.5871 16.3062 16.8509 17.0893 16.1775 17.7628C14.4546 19.4857 12.8727 21.1772 11.3691 23.088L24.6194 35.4142C25.9038 34.2082 27.3134 33.1119 28.8326 32.1408Z" fill="black"/>
<path d="M19.72 41.7409C20.5501 40.2687 21.5839 38.7495 22.6802 37.4652L9.25762 25.8438C9.08534 26.0786 8.88173 26.4546 8.7251 26.6895C7.11189 29.0859 5.67095 31.5918 4.41797 34.1918L19.6417 41.8506C19.6887 41.7722 19.6731 41.8192 19.72 41.7409Z" fill="black"/>
<path d="M101.243 51.4219L105.002 69.0577H100.898L100.475 66.2072H97.4054L96.9512 69.0577H92.8477L96.6379 51.4219H101.243ZM100.005 62.6831L98.9403 55.8074L97.8596 62.6831H100.005Z" fill="black"/>
<path d="M112.048 51.4219C116.167 51.4219 117.999 55.2749 117.999 60.5374C117.999 65.7999 116.182 69.6529 112.048 69.6529C107.928 69.6529 106.08 65.7999 106.08 60.5374C106.065 55.2749 107.928 51.4219 112.048 51.4219ZM113.927 60.5374C113.927 57.2483 113.457 54.9616 112.048 54.9616C110.654 54.9616 110.137 57.264 110.137 60.5374C110.137 63.7638 110.638 66.1132 112.048 66.1132C113.441 66.1132 113.927 63.7638 113.927 60.5374Z" fill="black"/>
<path d="M88.1471 63.6072L91.3266 64.7662C90.8254 66.8336 89.7447 69.6529 86.4869 69.6529C82.3364 69.6529 80.4883 65.8469 80.4883 60.5374C80.4883 55.2279 82.3364 51.4219 86.4869 51.4219C89.6664 51.4219 90.7158 53.9592 91.2953 55.964L88.1315 57.123C87.8339 55.7761 87.411 54.9616 86.4869 54.9616C85.0617 54.9616 84.5605 57.2013 84.5605 60.5374C84.5605 63.8421 85.0617 66.1132 86.4869 66.1132C87.5207 66.1132 87.9592 65.0325 88.1471 63.6072Z" fill="black"/>
<path d="M75.727 51.4219L79.4859 69.0577H75.3824L74.9595 66.2072H71.8897L71.4355 69.0577H67.3477L71.1223 51.4219H75.727ZM74.4897 62.6831L73.4403 55.8074L72.3596 62.6831H74.4897Z" fill="black"/>
<path d="M62.6647 61.9157L65.0141 69.0577H60.7226L58.9997 62.8711H58.154V69.0577H54.1914V51.4219H59.6889C62.696 51.4219 64.8731 53.7713 64.8731 56.9977C64.8731 59.9422 63.6201 61.3049 62.6647 61.9157ZM60.7852 57.1543C60.7852 55.7761 60.1587 54.9146 59.0467 54.9146H58.1696V59.3784H59.0467C60.1587 59.3784 60.7852 58.5013 60.7852 57.1543Z" fill="black"/>
<path d="M51.8268 51.4219V63.6699C51.8268 67.6638 49.1016 69.3866 46.3607 69.3866C43.6198 69.3866 40.8945 67.6638 40.8945 63.7012V51.4376H44.8884V63.9205C44.8884 65.3457 45.4679 65.9096 46.3763 65.9096C47.2848 65.9096 47.8643 65.3457 47.8643 63.9205V51.4376H51.8268V51.4219Z" fill="black"/>
<path d="M35.3346 63.6072L38.5141 64.7662C38.0129 66.8336 36.9322 69.6529 33.6744 69.6529C29.5239 69.6529 27.6758 65.8469 27.6758 60.5374C27.6758 55.2279 29.5239 51.4219 33.6744 51.4219C36.8539 51.4219 37.9033 53.9592 38.4828 55.964L35.3033 57.123C35.0057 55.7761 34.5985 54.9616 33.6588 54.9616C32.2335 54.9616 31.7323 57.2013 31.7323 60.5374C31.7323 63.8421 32.2335 66.1132 33.6588 66.1132C34.7082 66.1132 35.1624 65.0325 35.3346 63.6072Z" fill="black"/>
<path d="M19.2016 51.4844L22.9606 69.1201H18.8571L18.4342 66.2696H15.3644L14.9102 69.1201H10.8066L14.5813 51.4844H19.2016ZM17.9487 62.7456L16.8993 55.8698L15.8186 62.7456H17.9487Z" fill="black"/>
<path d="M8.39477 65.565V69.042H0.09375V51.4219H4.08764V65.565H8.39477Z" fill="black"/>
<path d="M70.482 1.29975C67.9134 0.76723 65.3292 0.29736 62.6822 0.09375L54.2402 28.9124C55.6655 29.4136 57.0438 30.0245 58.3594 30.7293L76.4181 2.69369C74.4603 2.08286 72.4712 1.70697 70.482 1.29975Z" fill="black"/>
<path d="M46.3906 1.17528V27.6759C48.3014 27.7855 50.1652 28.0831 51.9507 28.5373L60.1578 0.0319277C53.564 -0.0463838 50.2749 0.423485 46.3906 1.17528Z" fill="black"/>
<path d="M117.2 44.4386L114.897 38.0014C113.488 34.6653 111.373 30.6244 109.4 27.5859L71.043 45.1121C71.1369 45.3627 71.3562 46.0048 71.4345 46.2554L95.0063 46.3807L117.764 46.4747H117.905L117.2 44.4386Z" fill="black"/>
<path d="M69.9326 42.6485L107.882 25.4199C106.066 22.961 104.484 20.8935 102.322 18.7321C100.678 17.0876 97.9525 14.5503 96.1357 13.1094L67.0508 38.1847C67.9749 39.4064 69.2435 41.2859 69.9326 42.6485Z" fill="black"/>
<path d="M65.2654 36.1787L93.8805 11.3853C93.5829 11.166 93.0347 10.7901 92.7215 10.5709C89.448 8.36246 86.8481 6.65526 83.2144 5.12036C82.5253 4.82277 80.5362 4.05532 79.8314 3.78906L61.2402 32.686C62.4776 33.5945 64.2004 35.0824 65.2654 36.1787Z" fill="black"/>
</g>
<defs>
<clipPath id="clip0_78_5301">
<rect width="118" height="70" fill="white"/>
</clipPath>
</defs>
</svg>
