<svg width="134" height="20" viewBox="0 0 134 20" fill="none" xmlns="http://www.w3.org/2000/svg">
<g id="falabella.com - Orange">
<path id="Union" fill-rule="evenodd" clip-rule="evenodd" d="M51.3243 5.17434C53.4466 5.85876 54.755 7.3426 55.2699 9.4413C55.7629 11.4477 55.2145 13.3703 53.9834 14.901C52.3585 16.9174 48.2992 17.8119 45.7816 15.8453L45.6897 16.6462H42.9694V12.8066V3.11255C42.9694 1.39298 44.4017 0 46.1667 0V5.98939C47.335 4.91022 49.3975 4.53961 51.3243 5.17434ZM49.4792 14.0519C50.7934 13.9071 51.6773 13.1545 52.0609 11.9348C52.5977 9.94113 51.4483 7.48319 48.4305 7.78422C46.95 8.00431 46.2396 9.07353 46.2396 9.07353V12.8052C47.0783 13.8006 48.2365 14.1897 49.4792 14.0519ZM8.23536 2.98749H5.12996C4.06371 2.98749 3.1973 3.82952 3.1973 4.86751V6.68222H6.80445V9.64425H3.1973V16.8875C3.1973 18.607 1.76493 20 0 20V5.0024C0 2.25336 2.28857 0.0254549 5.11245 0.0254549H8.23536V2.98749ZM26.4725 16.6715H23.2752V3.1436C23.2752 1.42403 24.7076 0.031055 26.4725 0.031055V16.6715ZM74.4551 16.6715H71.2578V3.1436C71.2578 1.42403 72.6902 0.031055 74.4551 0.031055V16.6715ZM76.6284 16.6715H79.8257V0.031055C78.0608 0.031055 76.6284 1.42403 76.6284 3.1436V16.6715ZM63.5578 16.9713C58.7444 16.9713 56.749 13.7153 56.9488 10.3898C57.1049 7.80545 59.1469 4.86329 63.3638 4.86329C68.1349 4.86329 70.0501 9.07346 69.3558 12.1903H60.3926C60.572 13.3603 61.7374 14.1669 63.3084 14.2691C65.1914 14.3912 66.405 13.0153 66.405 13.0153L68.8336 14.2634C67.6478 16.1846 65.7618 16.9713 63.5578 16.9713ZM63.358 7.56832C61.0956 7.55412 60.4043 9.42419 60.4159 9.95668H66.1964C66.2489 9.48809 65.7866 7.58251 63.358 7.56832ZM21.1296 5.46701C20.4119 5.46701 19.7541 5.70983 19.2363 6.11168C17.6639 5.00695 15.3636 4.43186 12.8242 5.26821C10.715 5.94837 9.41395 7.42371 8.90197 9.50963C8.41188 11.5047 8.95739 13.4174 10.1812 14.9353C11.7915 16.9318 15.7998 17.8221 18.3042 15.8994L18.5566 16.6719H21.131V8.36373L21.1296 5.46701ZM17.9717 12.9246C17.0717 13.9371 15.8946 14.1671 14.6577 14.0308C13.3522 13.886 12.4727 13.203 12.0905 11.9889C11.5567 10.008 12.7002 7.5004 15.6991 7.80001C17.3474 8.0485 17.9702 9.2157 17.9702 9.2157V12.9246H17.9717ZM92.4559 6.11435C92.9738 5.71108 93.6316 5.46968 94.3492 5.46968H94.3507V8.3664V16.6746H91.7762L91.5239 15.9021C89.0194 17.8247 85.0112 16.9344 83.4008 14.938C82.1771 13.42 81.6316 11.5073 82.1217 9.5123C82.6336 7.42638 83.9347 5.95105 86.0439 5.27089C88.5833 4.43453 90.8836 5.00962 92.4559 6.11435ZM87.8773 14.0335C89.1143 14.1698 90.2914 13.9397 91.1913 12.9273H91.1899V9.21838C91.1899 9.21838 90.567 8.05118 88.9188 7.80268C85.9199 7.50307 84.7763 10.0107 85.3102 11.9916C85.6923 13.2056 86.5719 13.8886 87.8773 14.0335ZM38.9275 6.11168C37.3551 5.00695 35.0549 4.43186 32.5154 5.26821C30.4063 5.94837 29.1052 7.42371 28.5932 9.50963C28.1031 11.5047 28.6486 13.4174 29.8724 14.9353C31.4827 16.9318 35.491 17.8221 37.9955 15.8994L38.2478 16.6719H40.8223V8.36373V5.46559C40.1032 5.46701 39.4468 5.70841 38.9275 6.11168ZM37.6629 12.9246C36.7629 13.9371 35.5858 14.1671 34.3489 14.0308C33.0435 13.886 32.1639 13.203 31.7818 11.9889C31.2479 10.008 32.3915 7.5004 35.3904 7.80001C37.0386 8.0485 37.6614 9.2157 37.6614 9.2157V12.9246H37.6629ZM108.091 11.8667C108.091 9.13898 110.229 7.08003 113.065 7.08003C115.91 7.08003 118.056 9.13756 118.058 11.8667C118.058 14.6072 115.91 16.6719 113.065 16.6719C110.229 16.6719 108.091 14.6072 108.091 11.8667ZM110.654 11.8653C110.654 13.3094 111.666 14.3573 113.063 14.3573C114.449 14.3573 115.495 13.2867 115.495 11.8653C115.495 10.4567 114.45 9.39457 113.063 9.39457C111.689 9.39457 110.654 10.4567 110.654 11.8653ZM129.842 7.08009C128.373 6.97075 127.117 7.71197 126.417 8.1337C125.613 7.50324 124.718 7.08009 123.573 7.08009C121.44 7.08009 119.264 8.32681 119.264 8.32681V16.4547H121.752V9.71696C122.153 9.43439 122.878 9.39605 123.284 9.39605C124.134 9.39605 125.126 10.045 125.126 11.1412V16.4547H127.614V10.5306C127.614 10.0535 127.48 9.81066 127.48 9.81066C129.14 8.90899 131.083 9.59626 131.083 11.1412V16.4547H133.571V11.1043C133.57 8.50574 131.506 7.20362 129.842 7.08009ZM103.785 9.39446C102.604 9.39446 101.606 10.3671 101.412 11.4789C100.785 10.884 99.9606 10.485 99.0431 10.3785C99.6776 8.4232 101.555 7.0785 103.897 7.0785C105.977 7.0785 107.41 8.21305 107.41 8.21305L106.138 10.1584C106.138 10.1584 105.169 9.39446 103.785 9.39446ZM106.205 13.5391C106.205 13.5391 105.252 14.3556 103.786 14.3556C103.372 14.3556 102.981 14.2349 102.639 14.0304C102.646 14.1298 102.652 14.2292 102.652 14.33C102.652 15.0769 102.44 15.7755 102.073 16.3733C102.636 16.5664 103.25 16.6715 103.9 16.6715C106.23 16.6715 107.537 15.3581 107.537 15.3581L106.205 13.5391ZM100.85 14.3316C100.85 15.562 99.8256 16.5595 98.5617 16.5595C97.2978 16.5595 96.2731 15.562 96.2731 14.3316C96.2731 13.1012 97.2978 12.1037 98.5617 12.1037C99.8256 12.1037 100.85 13.1012 100.85 14.3316Z" fill="#AAD500"/>
</g>
</svg>
