<svg width="403" height="54" viewBox="0 0 403 54" fill="none" xmlns="http://www.w3.org/2000/svg">
<path d="M235.333 1.49098C228.267 4.15764 220.533 12.5576 218.667 19.7576C212 44.291 239.067 62.9576 261.2 49.2243C277.467 39.2243 277.467 14.691 261.067 4.55764C253.6 -0.109024 243.067 -1.30902 235.333 1.49098ZM250 23.7576C250.533 24.4243 250.533 26.5576 250.133 28.4243C249.467 30.691 248.4 31.6243 246.133 31.6243C242.133 31.6243 239.6 28.5576 240.667 24.9576C241.6 22.0243 248.4 21.091 250 23.7576Z" fill="#FF0000"/>
<path d="M0 26.9609V52.9609H12H24V44.2943V35.6276H28.6667H33.3333V44.2943V52.9609H45.3333H57.3333V26.9609V0.960935H45.3333H33.3333V10.9609V20.9609H28.6667H24V10.9609V0.960935H12H0V26.9609Z" fill="#FF0000"/>
<path d="M68 26.9609V52.9609H78.6667H89.3333V26.9609V0.960935H78.6667H68V26.9609Z" fill="#FF0000"/>
<path d="M98.6665 26.9609V52.9609H110.667H122.667V44.8276V36.6943L126.4 37.4943C131.333 38.6943 134.667 43.0943 134.667 48.4276V52.9609H156.133H177.467L178.8 48.9609C180.267 45.0943 180.533 44.9609 188.533 44.9609C196.4 44.9609 196.8 45.0943 198.267 48.9609C199.733 52.9609 199.733 52.9609 210.667 52.9609C220.4 52.9609 221.467 52.6943 220.8 50.5609C220.4 49.3609 215.867 37.7609 210.933 24.9609L201.867 1.6276H187.467H173.067L165.6 21.6276C158.267 41.3609 158.133 41.4943 156.4 37.3609C155.467 35.0943 153.467 32.2943 152 31.2276C149.6 29.6276 149.467 29.0943 151.333 27.6276C155.067 24.4276 156.533 16.6943 154.267 11.2276C150.4 2.16093 146.533 0.960935 121.067 0.960935H98.6665V26.9609ZM129.333 14.0276C132.8 16.8276 132.133 21.6276 128 22.9609C124.133 24.1609 122.667 22.6943 122.667 17.7609C122.667 11.0943 124.4 10.0276 129.333 14.0276ZM192 27.8943C192 28.5609 190.267 28.9609 188.133 28.9609C184.267 28.9609 184.267 28.8276 185.467 23.8943C187.867 14.9609 188.267 14.6943 190.133 20.9609C191.067 24.2943 192 27.3609 192 27.8943Z" fill="#FF0000"/>
<path d="M277.333 26.9609V52.9609H289.333H301.333V44.2943C301.333 35.6276 301.333 35.6276 305.2 35.6276C309.867 35.6276 312.533 39.3609 314 47.3609L314.933 52.9609H336.667H358.4L359.867 48.9609C361.2 45.0943 361.467 44.9609 369.334 44.9609C377.2 44.9609 377.467 45.0943 378.8 48.9609L380.267 52.9609H391.467H402.534L399.334 44.5609C397.6 40.0276 393.2 28.5609 389.6 18.9609L382.934 1.6276H368.4H354L346.667 21.2276C342.667 32.0276 338.933 40.9609 338.533 40.9609C338 40.9609 337.333 39.0943 336.8 36.9609C336.4 34.6943 334.533 31.3609 332.533 29.6276L329.067 26.4276L332.133 20.1609C333.733 16.6943 335.333 10.9609 335.733 7.49427L336.4 0.960935H324.4H312.4L311.467 6.4276C310.667 11.6276 305.733 18.2943 302.667 18.2943C301.867 18.2943 301.333 14.8276 301.333 9.6276V0.960935H289.333H277.333V26.9609ZM372.534 25.8943C373.467 28.6943 373.067 28.9609 369.334 28.9609C366.134 28.9609 365.2 28.4276 365.734 27.0943C366.134 26.0276 366.934 22.8276 367.467 20.0276L368.4 14.9609L370 18.9609C370.934 21.0943 372.134 24.2943 372.534 25.8943Z" fill="#FF0000"/>
</svg>
