<svg width="1289" height="502" viewBox="0 0 1289 502" fill="none" xmlns="http://www.w3.org/2000/svg">
<path d="M0.5 253.997V501.5H628H1289V251.169V0.5H602H0.5V253.997ZM185.114 144.832C194.676 149.257 198.67 160.567 194.071 170.033C185.356 188.473 158.485 182.572 158.485 162.042C158.485 154.666 162.358 148.397 169.016 145.078C175.189 141.881 178.699 141.881 185.114 144.832ZM511.438 180.237L511.801 195.972L529.715 196.341L547.508 196.71V208.757V220.927L543.635 221.542C541.456 221.911 533.347 222.157 525.721 222.157L511.801 222.034V255.841C511.801 292.229 512.164 294.565 518.095 297.269C519.669 298.007 526.931 298.621 534.194 298.621H547.508V311.038V323.331L526.689 322.962C508.896 322.593 505.023 322.225 501.029 320.258C494.977 317.184 489.288 311.406 486.262 305.26C484.083 300.711 483.962 296.9 483.599 232.483L483.357 164.624H497.156H511.075L511.438 180.237ZM426.831 196.587C443.898 201.996 457.818 215.641 462.78 231.869C464.959 239.245 465.201 243.301 465.201 281.534V323.208H451.402H437.483L437.12 282.886C436.756 238.63 436.635 238.384 428.889 229.287C422.474 222.034 416.543 219.329 405.891 219.329C395.603 219.329 389.793 221.788 383.257 228.795C375.268 237.155 375.147 238.384 374.663 282.886L374.3 323.208H359.775H345.371V285.959C345.371 265.552 345.976 245.268 346.703 240.843C349.971 219.329 363.769 203.471 385.314 196.464C395.119 193.267 416.422 193.268 426.831 196.587ZM191.408 259.529L191.045 322.593L188.14 329.109C186.566 332.674 183.056 337.468 180.393 339.804C173.615 345.705 166.595 347.795 153.28 347.795H142.024V335.501V323.208H147.47C154.249 323.208 159.211 320.749 161.148 316.447C162.237 314.111 162.6 297.515 162.6 254.98V196.587H177.125H191.771L191.408 259.529ZM237.887 238.015C238.251 278.214 238.372 279.69 240.913 284.607C244.303 291.122 251.928 297.761 258.101 299.605C265 301.818 276.257 301.326 281.825 298.744C288.119 295.917 294.292 289.647 297.076 283.255C299.134 278.829 299.376 274.403 299.376 237.401V196.587H314.022H328.547L328.183 240.474C327.82 282.64 327.699 284.73 325.036 291.245C314.99 316.693 288.24 330.461 257.859 325.913C232.804 322.225 214.164 304.891 209.806 281.534C209.201 277.969 208.596 257.316 208.596 235.802V196.587H223.121H237.524L237.887 238.015ZM656.323 198.554C660.923 199.906 664.433 202.119 668.548 206.298C677.868 215.764 678.232 217.977 678.232 261.004C678.232 297.392 678.111 298.13 675.327 304.153C671.938 311.406 666.612 317.184 660.318 320.258C656.323 322.347 652.087 322.593 620.859 322.962C580.552 323.331 577.284 322.839 568.69 313.988C559.612 304.891 559.007 301.203 559.007 259.283C559.007 224.001 559.128 222.894 561.791 216.748C565.543 208.388 572.443 201.75 580.431 198.922C585.999 196.955 590.962 196.71 618.438 196.587C643.735 196.587 651.24 196.955 656.323 198.554ZM787.168 209.003C787.168 221.419 787.168 221.542 783.052 226.582C780.753 229.41 766.349 246.498 750.977 264.815L723.138 298.007L755.213 298.375L787.168 298.621V310.915V323.208H743.956C703.529 323.208 700.382 323.085 697.114 320.872C695.298 319.643 692.635 316.938 691.425 315.094C688.278 310.3 688.278 299.359 691.425 294.319C692.635 292.229 706.797 275.387 722.774 256.947C738.873 238.384 751.703 222.894 751.34 222.526C751.098 222.157 736.815 221.911 719.627 221.911L688.52 221.788L688.157 210.847C687.915 204.823 688.036 199.168 688.399 198.185C688.883 196.955 698.445 196.587 738.147 196.587H787.168V209.003ZM896.104 242.687L902.761 246.375L903.124 253.997L903.487 261.618L897.314 257.439C887.51 250.677 876.374 248.833 865.36 252.153C858.703 254.119 848.656 264.323 846.72 271.084C841.999 287.557 848.051 304.03 861.607 311.283C869.112 315.217 883.758 314.971 891.989 310.669C895.257 308.825 898.767 306.489 899.614 305.506C902.519 301.941 903.488 303.416 903.124 311.161L902.761 318.782L895.62 322.593C888.963 325.913 887.389 326.281 876.253 326.281C865.239 326.281 863.302 325.913 857.129 322.839C848.172 318.414 839.699 309.685 835.705 301.08C833.042 295.302 832.558 292.598 832.558 282.64C832.558 272.559 833.042 269.978 835.826 263.954C840.91 252.89 851.682 243.424 863.423 239.49C865.118 238.876 871.654 238.63 877.948 238.753C888.115 238.999 890.294 239.49 896.104 242.687ZM977.443 242.441C985.068 246.252 993.783 255.103 997.899 263.094C1002.01 271.207 1002.62 289.278 998.988 298.867C995.478 308.579 987.368 317.307 977.443 322.225C970.059 325.913 968.486 326.281 957.834 326.281C947.909 326.281 945.367 325.79 939.436 322.962C930.6 318.782 922.249 310.3 918.133 301.326C915.349 295.302 914.865 292.721 914.865 282.64C914.865 272.682 915.349 269.978 918.012 264.2C922.007 255.595 927.574 249.079 934.474 244.899C943.915 239.367 948.03 238.384 959.771 238.753C968.728 238.999 971.875 239.736 977.443 242.441ZM1063.87 242.072C1066.65 243.547 1070.4 246.743 1072.22 249.571L1075.61 254.365L1077.79 250.8C1081.66 244.162 1089.04 240.351 1098.48 239.859C1109.13 239.245 1116.15 241.703 1121.72 248.342C1128.26 256.209 1129.11 261.127 1129.11 294.319V323.823L1122.81 324.191L1116.64 324.56L1116.16 294.687C1115.79 268.749 1115.55 264.323 1113.61 260.758C1110.71 255.349 1104.9 251.907 1098.48 251.907C1091.95 251.907 1087.23 254.365 1082.87 260.143L1079.48 264.569L1079.12 294.565L1078.75 324.437H1072.22H1065.56V296.654C1065.56 279.321 1065.08 267.027 1064.23 264.077C1062.05 256.947 1057.21 252.89 1049.7 252.153C1041.96 251.415 1036.39 253.997 1032.52 260.389C1029.97 264.569 1029.85 266.536 1029.25 294.319L1028.64 323.823L1022.35 324.191L1015.93 324.56V282.763V240.843H1022.59H1029.25V246.006V251.169L1033.85 246.743C1036.27 244.162 1039.66 241.703 1041.35 240.966C1046.8 238.753 1058.3 239.367 1063.87 242.072ZM822.269 310.915C827.232 315.955 823.48 325.667 816.581 325.667C813.07 325.667 807.745 320.503 807.745 317.307C807.745 310.054 817.307 305.874 822.269 310.915Z" fill="#8E35CB"/>
<path d="M191.408 259.529L191.045 322.593L188.14 329.109C186.566 332.674 183.056 337.468 180.393 339.804C173.615 345.705 166.595 347.795 153.28 347.795H142.024V335.501V323.208H147.47C154.249 323.208 159.211 320.749 161.148 316.447C162.237 314.111 162.6 297.515 162.6 254.98V196.587H177.125H191.771L191.408 259.529Z" fill="white"/>
<path d="M185.114 144.832C194.676 149.257 198.67 160.567 194.071 170.033C185.356 188.473 158.485 182.572 158.485 162.042C158.485 154.666 162.358 148.397 169.016 145.078C175.189 141.881 178.699 141.881 185.114 144.832Z" fill="white"/>
<path d="M237.887 238.015C238.251 278.214 238.372 279.69 240.913 284.607C244.303 291.122 251.928 297.761 258.101 299.605C265 301.818 276.257 301.326 281.825 298.744C288.119 295.917 294.292 289.647 297.076 283.255C299.134 278.829 299.376 274.403 299.376 237.401V196.587H314.022H328.547L328.183 240.474C327.82 282.64 327.699 284.73 325.036 291.245C314.99 316.693 288.24 330.461 257.859 325.913C232.804 322.225 214.164 304.891 209.806 281.534C209.201 277.969 208.596 257.316 208.596 235.802V196.587H223.121H237.524L237.887 238.015Z" fill="white"/>
<path d="M426.831 196.587C443.898 201.996 457.818 215.641 462.78 231.869C464.959 239.245 465.201 243.301 465.201 281.534V323.208H451.402H437.483L437.12 282.886C436.756 238.63 436.635 238.384 428.889 229.287C422.474 222.034 416.543 219.329 405.891 219.329C395.603 219.329 389.793 221.788 383.257 228.795C375.268 237.155 375.147 238.384 374.663 282.886L374.3 323.208H359.775H345.371V285.959C345.371 265.552 345.976 245.268 346.703 240.843C349.971 219.329 363.769 203.471 385.314 196.464C395.119 193.267 416.422 193.268 426.831 196.587Z" fill="white"/>
<path d="M511.438 180.237L511.801 195.972L529.715 196.341L547.508 196.71V208.757V220.927L543.635 221.542C541.456 221.911 533.347 222.157 525.721 222.157L511.801 222.034V255.841C511.801 292.229 512.164 294.565 518.095 297.269C519.669 298.007 526.931 298.621 534.194 298.621H547.508V311.038V323.331L526.689 322.962C508.896 322.593 505.023 322.225 501.029 320.258C494.977 317.184 489.288 311.406 486.262 305.26C484.083 300.711 483.962 296.9 483.599 232.483L483.357 164.624H497.156H511.075L511.438 180.237Z" fill="white"/>
<path d="M787.168 209.003C787.168 221.419 787.168 221.542 783.052 226.582C780.753 229.41 766.349 246.498 750.977 264.815L723.138 298.007L755.213 298.375L787.168 298.621V310.915V323.208H743.956C703.529 323.208 700.382 323.085 697.114 320.872C695.298 319.643 692.635 316.938 691.425 315.094C688.278 310.3 688.278 299.359 691.425 294.319C692.635 292.229 706.797 275.387 722.774 256.947C738.873 238.384 751.703 222.894 751.34 222.526C751.098 222.157 736.815 221.911 719.627 221.911L688.52 221.788L688.157 210.847C687.915 204.823 688.036 199.168 688.399 198.185C688.883 196.955 698.445 196.587 738.147 196.587H787.168V209.003Z" fill="white"/>
<path d="M822.269 310.915C827.232 315.955 823.48 325.667 816.581 325.667C813.07 325.667 807.745 320.503 807.745 317.307C807.745 310.054 817.307 305.874 822.269 310.915Z" fill="white"/>
<path d="M896.104 242.687L902.761 246.375L903.124 253.997L903.487 261.618L897.314 257.439C887.51 250.677 876.374 248.833 865.36 252.153C858.703 254.119 848.656 264.323 846.72 271.084C841.999 287.557 848.051 304.03 861.607 311.283C869.112 315.217 883.758 314.971 891.989 310.669C895.257 308.825 898.767 306.489 899.614 305.506C902.519 301.941 903.488 303.416 903.124 311.161L902.761 318.782L895.62 322.593C888.963 325.913 887.389 326.281 876.253 326.281C865.239 326.281 863.302 325.913 857.129 322.839C848.172 318.414 839.699 309.685 835.705 301.08C833.042 295.302 832.558 292.598 832.558 282.64C832.558 272.559 833.042 269.978 835.826 263.954C840.91 252.89 851.682 243.424 863.423 239.49C865.118 238.876 871.654 238.63 877.948 238.753C888.115 238.999 890.294 239.49 896.104 242.687Z" fill="white"/>
<path d="M977.443 242.441C985.068 246.252 993.783 255.103 997.899 263.094C1002.01 271.207 1002.62 289.278 998.988 298.867C995.478 308.579 987.368 317.307 977.443 322.225C970.059 325.913 968.486 326.281 957.834 326.281C947.909 326.281 945.367 325.79 939.436 322.962C930.6 318.782 922.249 310.3 918.133 301.326C915.349 295.302 914.865 292.721 914.865 282.64C914.865 272.682 915.349 269.978 918.012 264.2C922.007 255.595 927.574 249.079 934.474 244.899C943.915 239.367 948.03 238.384 959.771 238.753C968.728 238.999 971.875 239.736 977.443 242.441Z" fill="white"/>
<path d="M1063.87 242.072C1066.65 243.547 1070.4 246.743 1072.22 249.571L1075.61 254.365L1077.79 250.8C1081.66 244.162 1089.04 240.351 1098.48 239.859C1109.13 239.245 1116.15 241.703 1121.72 248.342C1128.26 256.209 1129.11 261.127 1129.11 294.319V323.823L1122.81 324.191L1116.64 324.56L1116.16 294.687C1115.79 268.749 1115.55 264.323 1113.61 260.758C1110.71 255.349 1104.9 251.907 1098.48 251.907C1091.95 251.907 1087.23 254.365 1082.87 260.143L1079.48 264.569L1079.12 294.565L1078.75 324.437H1072.22H1065.56V296.654C1065.56 279.321 1065.08 267.027 1064.23 264.077C1062.05 256.947 1057.21 252.89 1049.7 252.153C1041.96 251.415 1036.39 253.997 1032.52 260.389C1029.97 264.569 1029.85 266.536 1029.25 294.319L1028.64 323.823L1022.35 324.191L1015.93 324.56V282.763V240.843H1022.59H1029.25V246.006V251.169L1033.85 246.743C1036.27 244.162 1039.66 241.703 1041.35 240.966C1046.8 238.753 1058.3 239.367 1063.87 242.072Z" fill="white"/>
<path d="M656.323 198.554C660.923 199.906 664.433 202.119 668.548 206.298C677.868 215.764 678.232 217.977 678.232 261.004C678.232 297.392 678.111 298.13 675.327 304.153C671.938 311.406 666.612 317.184 660.318 320.258C656.323 322.347 652.087 322.593 620.859 322.962C580.552 323.331 577.284 322.839 568.69 313.988C559.612 304.891 559.007 301.203 559.007 259.283C559.007 224.001 559.128 222.894 561.791 216.748C565.543 208.388 572.443 201.75 580.431 198.922C585.999 196.955 590.962 196.71 618.438 196.587C643.735 196.587 651.24 196.955 656.323 198.554Z" fill="white"/>
<path d="M587.936 222.283C587.694 222.529 587.452 239.863 587.452 260.762V298.625H618.317H649.182V260.147V221.792H618.801C602.098 221.792 588.178 222.038 587.936 222.283Z" fill="#8E35CB"/>
<path d="M945.125 253.011C938.831 255.961 930.48 265.181 928.906 271.082C927.212 277.352 927.212 287.924 929.027 293.825C930.843 300.095 937.379 307.839 943.794 311.281C950.693 314.969 964.855 315.092 971.754 311.281C983.132 305.135 988.7 295.669 988.579 282.023C988.579 268.132 982.527 258.543 970.544 253.011C964.129 249.938 951.541 249.938 945.125 253.011Z" fill="#8E35CB"/>
</svg>
