<svg width="4667" height="1147" viewBox="0 0 4667 1147" fill="none" xmlns="http://www.w3.org/2000/svg">
<g clip-path="url(#clip0_80_5301)">
<path d="M4210.27 2.13617C4181.07 7.33617 4156.27 20.6695 4140 39.4695L4134 46.4028L4133.33 111.47L4132.67 176.536L4127.47 169.336C4111.07 146.403 4089.33 131.336 4062 123.736C4052.67 121.203 4048.13 120.803 4026.67 120.803C4003.47 120.936 4001.07 121.203 3986.4 125.07C3913.07 144.27 3877.33 206.403 3877.33 314.403C3877.33 401.603 3904.53 457.336 3961.07 485.87C3988.13 499.47 4033.6 506.803 4073.6 504.003C4162.27 497.603 4208.67 458.67 4223.6 378.003C4225.6 367.203 4225.87 347.336 4226.27 182.936L4226.8 0.00283827L4223.73 0.136172C4222 0.136172 4216 1.0695 4210.27 2.13617ZM4075.33 206.003C4094.27 210.936 4109.33 223.47 4118.53 241.736C4137.87 280.136 4137.73 349.736 4118.4 386.936C4104.53 413.603 4079.33 426.936 4046.53 424.803C4015.33 422.803 3995.2 408.003 3983.6 378.67C3976.13 359.47 3972.27 327.07 3974.53 300.403C3979.33 245.07 3997.47 215.336 4032 206.136C4041.87 203.47 4065.33 203.47 4075.33 206.003Z" fill="#002F6D"/>
<path d="M778.667 22.1326C584.133 28.9326 408.933 75.9994 267.6 159.599C113.333 250.799 19.4667 375.999 2.40004 513.333C-0.399959 535.333 0.133375 613.066 3.20004 636.666C20.4 771.999 94.4 889.866 218.533 979.866C334.933 1064.53 489.6 1119.33 665.333 1138.53C717.2 1144.27 747.6 1145.73 810.667 1145.87C928 1146 1018.8 1135.6 1118.67 1110.67C1184.8 1094.13 1243.47 1072.8 1302 1044C1371.2 1010 1426.4 971.599 1476.53 922.666C1561.73 839.466 1611.6 741.066 1623.2 633.333C1627.73 591.999 1627.07 532.799 1621.87 499.466C1599.07 353.466 1485.47 220.799 1306.27 131.199C1186.67 71.1993 1047.6 35.066 897.333 24.7993C868.533 22.7993 802.267 21.3326 778.667 22.1326ZM876 54.666C1077.33 65.5994 1259.33 123.066 1393.2 217.733C1410.53 229.999 1410.67 228.266 1391.2 236.133C1348.27 253.333 1297.73 266.399 1255.33 271.333C1235.33 273.599 1189.6 273.999 1169.2 271.999C1122.4 267.333 1071.2 253.066 1024 231.333C990.933 216.266 965.867 207.333 932.8 199.199C901.333 191.599 880.533 188.933 850 188.933C776.933 189.066 719.333 206.933 667.333 245.999L654.4 255.599L641.6 256.399C623.733 257.599 607.333 260.533 580 267.599C567.2 270.933 549.067 275.599 539.867 277.999C516.267 284.133 501.467 285.866 480.133 284.799C453.467 283.466 413.6 274.933 348.8 256.666C314.533 246.933 233.333 220.133 233.333 218.533C233.333 217.999 240.933 212.533 250.4 206.266C383.067 118.533 557.6 65.3327 746.667 54.7993C775.333 53.1993 847.733 53.1994 876 54.666ZM889.333 222.133C928.933 227.733 967.067 239.333 1012 259.733C1087.2 293.733 1158 307.866 1232.27 303.866C1293.6 300.533 1353.33 285.866 1418.4 258.133L1436.27 250.533L1445.07 258.133C1458.4 269.599 1490 301.733 1501.6 315.333C1543.33 365.066 1570.93 417.066 1585.33 473.333C1590.13 492.133 1590.27 494.399 1586.4 495.199C1584.67 495.599 1567.47 499.733 1548 504.533C1453.6 527.466 1350.93 561.466 1264.93 598.133L1248 605.466L1202.93 566.266C1111.87 487.066 1043.47 428.533 990 383.866C931.333 334.799 903.867 316.799 876.667 309.199C861.733 304.933 838.8 304.933 822.133 309.199C792.267 316.933 772.533 328.533 720 369.866C662 415.599 648.267 422.799 616.533 424.933C585.333 426.933 548.8 413.733 554.8 402.399C558.933 394.799 643.867 306.133 665.333 287.066C712.533 245.333 762.267 224.666 826.667 219.999C845.467 218.666 870.667 219.599 889.333 222.133ZM226.533 248.533C274.933 267.066 332.667 285.466 384.8 298.666C424.667 308.933 447.067 312.933 474.133 314.933C507.6 317.333 520.4 315.466 579.333 299.599C594 295.599 608.4 291.999 611.333 291.466L616.667 290.399L604.667 302.933C568.267 340.399 531.067 381.999 527.067 389.466C514.4 413.066 531.2 436.666 568.667 447.866C591.2 454.533 620.533 456.533 640.4 452.799C664.667 448.133 684.133 436.799 730.667 400.666C828 324.666 860.267 320.933 933.333 377.466C964.4 401.466 1034.27 460.799 1157.33 567.466C1248.27 646.133 1240.4 638.799 1246.27 651.599C1251.07 661.733 1251.33 676.266 1247.2 685.333C1239.2 702.666 1211.87 716.666 1191.47 713.999C1176 711.866 1172.27 709.333 1141.47 681.466C1107.2 650.399 1068.4 615.733 1055.07 604.266C1039.73 591.333 1034.8 589.466 1029.47 595.199C1023.07 601.998 1023.6 602.532 1085.29 664.617C1085.3 664.634 1085.32 664.65 1085.33 664.666C1133.47 713.066 1142.8 723.199 1146 729.866C1155.47 749.333 1147.2 771.066 1124.67 785.599C1113.07 793.199 1101.07 796.399 1087.6 795.733C1069.87 794.799 1068.13 793.599 1030.27 756.933C976.4 704.799 967.6 697.333 959.067 697.333C953.6 697.333 950.133 701.866 951.467 707.333C952 709.333 970.533 731.199 993.6 757.066C1018.8 785.199 1036 805.599 1037.6 809.199C1041.47 817.599 1040.53 828.533 1035.2 836.133C1025.73 849.866 1009.87 857.333 990.133 857.333C971.867 857.333 971.6 857.199 944.667 830.799C919.867 806.533 897.867 786.399 888.8 779.733C876.933 771.199 865.067 779.333 872.933 790.666C874.133 792.533 890.133 810.399 908.533 830.533L941.733 866.933L939.6 870.533C936.533 875.466 925.733 881.066 914.533 883.466C895.867 887.466 874.8 884.133 849.6 873.066C839.733 868.799 837.333 867.199 838 865.466C844.933 848.666 847.333 831.999 845.2 816.533C842.133 793.866 834.133 777.866 818 761.866C809.2 753.066 804.8 749.866 794.533 744.933C781.733 738.666 766.667 734.666 755.733 734.666H750L749.733 722.266C749.067 697.999 741.6 678.933 726.667 663.866C708.133 645.066 674.267 634.933 648.667 640.399C643.6 641.466 638.4 642.799 637.333 643.199C636 643.599 633.333 640.933 628.933 634.666C614.133 613.066 586.8 599.999 556 599.999C540.133 599.999 530.667 602.266 515.733 609.733L504.133 615.599L498.133 609.466C470.8 581.733 425.067 579.333 394 603.999C387.867 608.799 387.2 609.066 384.667 607.333C376.667 601.466 353.067 587.999 336.667 580.133C281.333 553.199 206.667 528.399 108.667 504.666C64.5334 493.999 38.6667 486.666 38.6667 485.066C38.6667 482.399 45.4667 457.333 49.0667 446.666C69.4667 386.933 108.133 328.266 159.867 278.266C174.533 264.266 202.267 239.999 203.733 239.999C204 239.999 214.267 243.866 226.533 248.533ZM82 531.333C191.733 557.199 254.8 576.933 315.6 604.399C334 612.666 358.933 626.533 365.6 631.999L369.867 635.599L367.467 643.333C351.733 693.466 392.533 745.866 445.467 743.733L457.333 743.333L459.467 750.666C467.6 779.066 490.933 802.799 520.133 812.533C532.4 816.666 546.133 818.133 555.733 816.266L562.8 815.066L565.6 820.533C575.067 839.199 592.533 853.466 616 861.999C628.533 866.666 650.267 867.999 660.267 864.933L666.533 862.933L671.333 871.333C684.267 894.666 705.333 911.066 730.4 917.466C742.667 920.533 762.4 920.799 774.667 917.866C786.533 915.199 803.2 906.799 811.867 899.333C816.133 895.599 820 893.466 821.2 893.866C822.4 894.133 830.267 897.466 838.8 901.333C862.533 911.733 876.933 915.066 898 915.066C911.333 915.066 917.733 914.399 925.6 912.266C942.8 907.599 957.2 898.933 963.6 889.199C966.8 884.266 967.6 883.866 971.2 884.666C982.667 887.199 993.333 887.733 1002.67 886.533C1032.4 882.399 1063.47 858.133 1071.6 832.533L1073.73 825.466L1084.67 826.266C1131.87 829.599 1180 790.533 1180 748.933C1180 742.799 1180.13 742.533 1183.07 743.466C1187.73 744.933 1206.53 744.533 1215.33 742.799C1219.73 741.866 1229.47 738.266 1236.93 734.666C1247.2 729.599 1252.4 726.133 1258.93 719.733C1280.13 698.666 1286.53 667.866 1275.2 640.666C1273.33 636.266 1271.73 631.866 1271.6 630.799C1271.33 628.533 1295.87 618.266 1340.67 602.133C1419.2 573.599 1509.33 547.333 1591.87 528.533L1595.07 527.866L1594.27 558.933C1593.73 582.533 1592.93 593.999 1590.67 606.533C1579.47 669.999 1552.53 726.933 1506.4 784.533C1500.4 791.866 1484.4 809.066 1470.8 822.666C1431.2 862.133 1388.4 894.533 1336.13 924.666C1082.27 1070.53 710.8 1094.4 416.667 983.733C330.133 951.066 255.2 908.533 190.4 855.066C172.8 840.666 132 799.333 118.133 781.999C91.6 748.799 65.2 703.333 52.6667 668.799C39.0667 631.733 33.3334 601.066 32.4 561.066C31.7334 537.333 32.4 519.999 33.7334 519.999C33.8667 519.999 55.6 525.066 82 531.333ZM462.933 620.266C479.067 627.733 489.6 642.266 492.267 661.199L493.867 671.866L499.467 663.599C515.733 639.333 542.133 626.533 568.267 630.399C594.533 634.266 610.533 649.599 614.8 674.933C616.133 682.266 618.533 686.666 621.333 686.666C621.867 686.666 625.6 683.999 629.6 680.933C644.667 669.199 660 665.733 677.733 669.866C701.333 675.333 716 689.466 720.133 710.399C722.4 722.133 720.933 739.466 716.667 753.199C713.067 764.666 713.067 769.733 716.8 771.199C718 771.599 723.867 770.399 729.867 768.533C742.933 764.266 755.467 763.199 765.467 765.199C798.667 772.133 821.867 805.199 816 837.466C812.4 858.266 799.067 875.866 780.133 884.933C770.8 889.466 768.933 889.999 756 890.399C744.267 890.799 740.667 890.399 733.467 887.999C709.467 879.999 693.867 861.066 690 835.466C687.333 817.333 685.2 816.399 670.933 827.199C659.6 835.866 654.4 837.733 642.8 837.599C626.4 837.466 605.733 827.066 595.733 813.999C589.867 806.133 587.2 797.866 587.6 787.466C588 773.733 584.533 771.599 573.2 778.666C564.933 783.733 552.267 787.999 545.733 787.999C531.467 787.866 514.667 780.266 503.333 768.799C489.733 755.199 485.2 742.266 485.2 717.733C485.2 702.533 485.067 701.199 482.533 699.866C480.133 698.666 479.067 699.066 475.467 702.399C473.2 704.666 468 708.133 464 710.266C457.333 713.599 455.333 713.999 443.333 713.999C430.933 713.999 429.333 713.733 421.067 709.599C410.667 704.533 402.667 696.266 397.467 685.333C394.533 678.933 394 676.266 394.133 665.333C394.133 655.466 394.8 651.333 396.933 646.666C403.333 632.933 413.6 623.199 427.333 618.266C437.067 614.799 452.933 615.733 462.933 620.266Z" fill="#002F6D"/>
<path d="M82 531.333C191.733 557.199 254.8 576.933 315.6 604.399C334 612.666 358.933 626.533 365.6 631.999L369.867 635.599L367.467 643.333C351.733 693.466 392.533 745.866 445.467 743.733L457.333 743.333L459.467 750.666C467.6 779.066 490.933 802.799 520.133 812.533C532.4 816.666 546.133 818.133 555.733 816.266L562.8 815.066L565.6 820.533C575.067 839.199 592.533 853.466 616 861.999C628.533 866.666 650.267 867.999 660.267 864.933L666.533 862.933L671.333 871.333C684.267 894.666 705.333 911.066 730.4 917.466C742.667 920.533 762.4 920.799 774.667 917.866C786.533 915.199 803.2 906.799 811.867 899.333C816.133 895.599 820 893.466 821.2 893.866C822.4 894.133 830.267 897.466 838.8 901.333C862.533 911.733 876.933 915.066 898 915.066C911.333 915.066 917.733 914.399 925.6 912.266C942.8 907.599 957.2 898.933 963.6 889.199C966.8 884.266 967.6 883.866 971.2 884.666C982.667 887.199 993.333 887.733 1002.67 886.533C1032.4 882.399 1063.47 858.133 1071.6 832.533L1073.73 825.466L1084.67 826.266C1131.87 829.599 1180 790.533 1180 748.933C1180 742.799 1180.13 742.533 1183.07 743.466C1187.73 744.933 1206.53 744.533 1215.33 742.799C1219.73 741.866 1229.47 738.266 1236.93 734.666C1247.2 729.599 1252.4 726.133 1258.93 719.733C1280.13 698.666 1286.53 667.866 1275.2 640.666C1273.33 636.266 1271.73 631.866 1271.6 630.799C1271.33 628.533 1295.87 618.266 1340.67 602.133C1419.2 573.599 1509.33 547.333 1591.87 528.533L1595.07 527.866L1594.27 558.933C1593.73 582.533 1592.93 593.999 1590.67 606.533C1579.47 669.999 1552.53 726.933 1506.4 784.533C1500.4 791.866 1484.4 809.066 1470.8 822.666C1431.2 862.133 1388.4 894.533 1336.13 924.666C1082.27 1070.53 710.8 1094.4 416.667 983.733C330.133 951.066 255.2 908.533 190.4 855.066C172.8 840.666 132 799.333 118.133 781.999C91.6 748.799 65.2 703.333 52.6667 668.799C39.0667 631.733 33.3334 601.066 32.4 561.066C31.7334 537.333 32.4 519.999 33.7334 519.999C33.8667 519.999 55.6 525.066 82 531.333Z" fill="#FFE900"/>
<path d="M876 54.666C1077.33 65.5994 1259.33 123.066 1393.2 217.733C1410.53 229.999 1410.67 228.266 1391.2 236.133C1348.27 253.333 1297.73 266.399 1255.33 271.333C1235.33 273.599 1189.6 273.999 1169.2 271.999C1122.4 267.333 1071.2 253.066 1024 231.333C990.933 216.266 965.867 207.333 932.8 199.199C901.333 191.599 880.533 188.933 850 188.933C776.933 189.066 719.333 206.933 667.333 245.999L654.4 255.599L641.6 256.399C623.733 257.599 607.333 260.533 580 267.599C567.2 270.933 549.067 275.599 539.867 277.999C516.267 284.133 501.467 285.866 480.133 284.799C453.467 283.466 413.6 274.933 348.8 256.666C314.533 246.933 233.333 220.133 233.333 218.533C233.333 217.999 240.933 212.533 250.4 206.266C383.067 118.533 557.6 65.3327 746.667 54.7993C775.333 53.1993 847.733 53.1994 876 54.666Z" fill="#FFE900"/>
<path d="M226.533 248.533C274.933 267.066 332.667 285.466 384.8 298.666C424.667 308.933 447.067 312.933 474.133 314.933C507.6 317.333 520.4 315.466 579.333 299.599C594 295.599 608.4 291.999 611.333 291.466L616.667 290.399L604.667 302.933C568.267 340.399 531.067 381.999 527.067 389.466C514.4 413.066 531.2 436.666 568.667 447.866C591.2 454.533 620.533 456.533 640.4 452.799C664.667 448.133 684.133 436.799 730.667 400.666C828 324.666 860.267 320.933 933.333 377.466C964.4 401.466 1034.27 460.799 1157.33 567.466C1248.27 646.133 1240.4 638.799 1246.27 651.599C1251.07 661.733 1251.33 676.266 1247.2 685.333C1239.2 702.666 1211.87 716.666 1191.47 713.999C1176 711.866 1172.27 709.333 1141.47 681.466C1107.2 650.399 1068.4 615.733 1055.07 604.266C1039.73 591.333 1034.8 589.466 1029.47 595.199C1023.07 601.998 1023.6 602.532 1085.29 664.617L1085.33 664.666C1133.47 713.066 1142.8 723.199 1146 729.866C1155.47 749.333 1147.2 771.066 1124.67 785.599C1113.07 793.199 1101.07 796.399 1087.6 795.733C1069.87 794.799 1068.13 793.599 1030.27 756.933C976.4 704.799 967.6 697.333 959.067 697.333C953.6 697.333 950.133 701.866 951.467 707.333C952 709.333 970.533 731.199 993.6 757.066C1018.8 785.199 1036 805.599 1037.6 809.199C1041.47 817.599 1040.53 828.533 1035.2 836.133C1025.73 849.866 1009.87 857.333 990.133 857.333C971.867 857.333 971.6 857.199 944.667 830.799C919.867 806.533 897.867 786.399 888.8 779.733C876.933 771.199 865.067 779.333 872.933 790.666C874.133 792.533 890.133 810.399 908.533 830.533L941.733 866.933L939.6 870.533C936.533 875.466 925.733 881.066 914.533 883.466C895.867 887.466 874.8 884.133 849.6 873.066C839.733 868.799 837.333 867.199 838 865.466C844.933 848.666 847.333 831.999 845.2 816.533C842.133 793.866 834.133 777.866 818 761.866C809.2 753.066 804.8 749.866 794.533 744.933C781.733 738.666 766.667 734.666 755.733 734.666H750L749.733 722.266C749.067 697.999 741.6 678.933 726.667 663.866C708.133 645.066 674.267 634.933 648.667 640.399C643.6 641.466 638.4 642.799 637.333 643.199C636 643.599 633.333 640.933 628.933 634.666C614.133 613.066 586.8 599.999 556 599.999C540.133 599.999 530.667 602.266 515.733 609.733L504.133 615.599L498.133 609.466C470.8 581.733 425.067 579.333 394 603.999C387.867 608.799 387.2 609.066 384.667 607.333C376.667 601.466 353.067 587.999 336.667 580.133C281.333 553.199 206.667 528.399 108.667 504.666C64.5334 493.999 38.6667 486.666 38.6667 485.066C38.6667 482.399 45.4667 457.333 49.0667 446.666C69.4667 386.933 108.133 328.266 159.867 278.266C174.533 264.266 202.267 239.999 203.733 239.999C204 239.999 214.267 243.866 226.533 248.533Z" fill="white"/>
<path d="M889.333 222.133C928.933 227.733 967.067 239.333 1012 259.733C1087.2 293.733 1158 307.866 1232.27 303.866C1293.6 300.533 1353.33 285.866 1418.4 258.133L1436.27 250.533L1445.07 258.133C1458.4 269.599 1490 301.733 1501.6 315.333C1543.33 365.066 1570.93 417.066 1585.33 473.333C1590.13 492.133 1590.27 494.399 1586.4 495.199C1584.67 495.599 1567.47 499.733 1548 504.533C1453.6 527.466 1350.93 561.466 1264.93 598.133L1248 605.466L1202.93 566.266C1111.87 487.066 1043.47 428.533 990 383.866C931.333 334.799 903.867 316.799 876.667 309.199C861.733 304.933 838.8 304.933 822.133 309.199C792.267 316.933 772.533 328.533 720 369.866C662 415.599 648.267 422.799 616.533 424.933C585.333 426.933 548.8 413.733 554.8 402.399C558.933 394.799 643.867 306.133 665.333 287.066C712.533 245.333 762.267 224.666 826.667 219.999C845.467 218.666 870.667 219.599 889.333 222.133Z" fill="white"/>
<path d="M462.933 620.266C479.067 627.733 489.6 642.266 492.267 661.199L493.867 671.866L499.467 663.599C515.733 639.333 542.133 626.533 568.267 630.399C594.533 634.266 610.533 649.599 614.8 674.933C616.133 682.266 618.533 686.666 621.333 686.666C621.867 686.666 625.6 683.999 629.6 680.933C644.667 669.199 660 665.733 677.733 669.866C701.333 675.333 716 689.466 720.133 710.399C722.4 722.133 720.933 739.466 716.667 753.199C713.067 764.666 713.067 769.733 716.8 771.199C718 771.599 723.867 770.399 729.867 768.533C742.933 764.266 755.467 763.199 765.467 765.199C798.667 772.133 821.867 805.199 816 837.466C812.4 858.266 799.067 875.866 780.133 884.933C770.8 889.466 768.933 889.999 756 890.399C744.267 890.799 740.667 890.399 733.467 887.999C709.467 879.999 693.867 861.066 690 835.466C687.333 817.333 685.2 816.399 670.933 827.199C659.6 835.866 654.4 837.733 642.8 837.599C626.4 837.466 605.733 827.066 595.733 813.999C589.867 806.133 587.2 797.866 587.6 787.466C588 773.733 584.533 771.599 573.2 778.666C564.933 783.733 552.267 787.999 545.733 787.999C531.467 787.866 514.667 780.266 503.333 768.799C489.733 755.199 485.2 742.266 485.2 717.733C485.2 702.533 485.067 701.199 482.533 699.866C480.133 698.666 479.067 699.066 475.467 702.399C473.2 704.666 468 708.133 464 710.266C457.333 713.599 455.333 713.999 443.333 713.999C430.933 713.999 429.333 713.733 421.067 709.599C410.667 704.533 402.667 696.266 397.467 685.333C394.533 678.933 394 676.266 394.133 665.333C394.133 655.466 394.8 651.333 396.933 646.666C403.333 632.933 413.6 623.199 427.333 618.266C437.067 614.799 452.933 615.733 462.933 620.266Z" fill="white"/>
<path d="M3269.33 117.329C3226 121.863 3190.27 137.463 3162 164.263C3132.53 192.129 3114.93 227.463 3106.4 275.996C3103.73 291.729 3104.13 340.396 3107.07 355.329C3116.8 404.396 3140.4 442.929 3176.8 469.596C3188.8 478.263 3214.93 491.063 3229.33 495.196C3287.33 511.729 3353.87 503.463 3397.33 474.396C3422 457.863 3440.13 435.863 3452.27 407.729C3457.47 395.863 3464.13 371.996 3465.87 359.596L3466.8 353.329H3418.27H3369.73L3367.33 364.263C3364 378.929 3354.93 396.663 3346 406.396C3338.53 414.529 3327.73 421.196 3316.4 424.796C3307.6 427.596 3281.33 428.796 3271.6 426.796C3253.2 422.929 3233.33 407.996 3222.8 390.263C3201.33 353.863 3199.07 284.129 3217.87 243.329C3235.87 204.396 3267.2 187.063 3307.33 193.863C3338.13 198.929 3356.4 215.996 3363.73 246.529L3366 255.996H3415.07H3464V250.796C3464 243.196 3460.4 225.863 3456.67 214.663C3441.87 171.196 3401.73 137.063 3350.27 123.996C3342 121.863 3330.67 119.596 3324.93 118.796C3309.87 116.663 3282.4 115.996 3269.33 117.329Z" fill="#002F6D"/>
<path d="M3639.47 117.333C3604.53 120.666 3579.73 129.066 3559.6 144.133C3536.4 161.599 3523.2 188.799 3519.33 226.933L3518.4 235.999H3562.27H3606.13L3607.87 230.933C3612.67 217.199 3625.73 203.333 3638.4 198.666C3649.07 194.666 3657.2 193.333 3671.2 193.333C3695.6 193.466 3713.47 198.799 3722.53 208.666C3733.47 220.533 3732.67 234.666 3720.4 245.333C3709.73 254.799 3693.73 259.599 3658.67 263.866C3592.4 272.133 3558 285.066 3534.27 310.666C3516.4 329.999 3508 354.266 3508 386.666C3508 417.599 3515.73 441.199 3532.53 461.599C3556.27 490.266 3601.47 506.266 3651.33 503.466C3756 497.466 3811.2 455.066 3821.2 372.666C3823.07 357.199 3823.2 215.866 3821.33 204.399C3813.47 155.999 3778.4 128.533 3713.33 119.333C3695.2 116.799 3655.6 115.733 3639.47 117.333ZM3731.6 336.266C3730.93 361.999 3729.47 370.399 3723.2 383.999C3710.13 412.533 3679.87 428.533 3642.8 426.399C3616.8 424.933 3602.53 411.066 3600.4 385.199C3599.07 369.066 3605.33 355.599 3619.33 345.066C3629.6 337.333 3639.6 333.999 3675.33 326.666C3693.47 322.933 3713.2 318.133 3719.2 315.999C3725.07 313.999 3730.53 312.266 3731.2 312.133C3731.87 311.999 3732 322.533 3731.6 336.266Z" fill="#002F6D"/>
<path d="M4453.07 117.336C4375.87 125.469 4319.87 168.536 4296.67 237.736C4282.13 281.336 4282.13 340.136 4296.67 383.469C4311.6 428.002 4341.47 462.802 4382 483.069C4436.93 510.536 4515.2 510.402 4570.53 482.802C4604.4 465.869 4631.07 438.402 4647.33 403.602C4673.73 347.069 4672.8 267.869 4645.07 212.669C4636.4 195.602 4627.2 182.936 4612.8 168.536C4579.6 135.469 4537.87 118.802 4483.33 116.802C4473.07 116.536 4459.47 116.669 4453.07 117.336ZM4500.4 195.469C4512.4 198.536 4523.33 204.802 4533.6 214.536C4553.87 233.602 4563.33 259.602 4564.93 301.336C4566.27 336.002 4562.13 360.269 4551.2 382.669C4539.73 405.869 4520.8 421.202 4497.33 426.136C4482.4 429.336 4456.93 428.136 4445.07 423.736C4405.2 408.936 4384.4 365.469 4387.07 302.002C4388.67 262.402 4396.93 237.469 4414.4 218.669C4427.87 204.002 4442 196.269 4460.67 193.336C4471.07 191.736 4490.13 192.802 4500.4 195.469Z" fill="#002F6D"/>
<path d="M2599.33 120.665C2520.53 133.065 2462.27 191.198 2447.73 271.998C2443.87 293.465 2444 329.065 2447.87 350.798C2460.27 421.198 2500.67 470.398 2562.8 491.198C2586.27 499.065 2598 500.665 2632 500.532C2657.73 500.532 2663.87 500.132 2675.6 497.598C2737.33 484.265 2775.07 451.065 2797.33 390.532L2801.2 379.998H2757.47H2713.6L2710.53 386.265C2704.13 399.865 2682.4 416.932 2664 422.932C2651.87 426.798 2624.53 427.732 2609.2 424.798C2570 417.065 2549.33 390.532 2544.93 342.265L2544.13 334.665H2676.13H2808V317.998C2808 209.865 2748.13 131.465 2657.07 119.998C2642.53 118.265 2612.67 118.532 2599.33 120.665ZM2653.2 196.532C2677.73 203.198 2694 221.598 2703.07 253.332C2704.93 259.598 2706.53 266.132 2706.8 267.998L2707.33 271.332L2626.8 271.732C2582.4 271.865 2545.73 271.598 2545.07 270.932C2543.73 269.598 2548.53 247.065 2551.87 239.332C2562.27 215.865 2584.67 198.798 2610.67 194.665C2620.4 193.065 2644.27 194.132 2653.2 196.532Z" fill="#002F6D"/>
<path d="M1989.33 120.8C1922 129.2 1882.53 159.733 1866.13 216.267C1858.8 241.467 1858.67 245.333 1858.67 377.2V498.667H1906H1953.2L1953.6 371.6C1954 252.133 1954.13 244.267 1956.4 238C1962.27 222.267 1972.27 212 1987.6 206.267C1994.4 203.733 1998 203.333 2017.33 203.333C2037.07 203.333 2040.13 203.733 2046.8 206.4C2063.87 213.2 2073.2 222.933 2079.07 240L2082 248.667L2082.4 373.6L2082.8 498.667H2130H2177.33L2177.6 371.6L2178 244.667L2181.07 236.933C2187.07 222.267 2196.53 213.2 2211.33 207.733C2222.27 203.867 2249.87 202.8 2263.07 205.867C2284.8 210.933 2297.07 222.8 2303.6 244.933C2305.6 251.867 2306 264.4 2306.67 361.333C2307.33 461.733 2307.47 470.4 2309.73 475.2C2313.33 483.333 2318.13 488.933 2324.67 492.8C2335.2 498.933 2342.27 500 2373.07 500H2401.47L2400.93 373.6C2400.53 264 2400.13 246 2398.27 236.933C2390.8 200.667 2380.13 178.8 2360.4 159.867C2341.73 141.733 2320.67 131.467 2289.07 125.067C2275.87 122.4 2270.13 122 2241.33 122C2212.53 122 2206.93 122.4 2193.6 125.067C2173.47 129.067 2155.07 135.867 2141.73 144C2135.73 147.6 2130.53 150.667 2130.27 150.667C2129.87 150.667 2126.4 148.533 2122.53 145.867C2106.93 135.467 2089.47 128.533 2066.67 123.733C2056.8 121.733 2047.33 121.067 2024 120.667C2007.47 120.4 1991.87 120.533 1989.33 120.8Z" fill="#002F6D"/>
<path d="M3012 122C2921.07 134.4 2872.4 189.2 2864 288.667C2863.33 297.467 2862.67 348.267 2862.67 402.267V500H2910.67H2958.53L2958.93 390.267L2959.47 280.667L2962.4 270.667C2970.8 243.6 2986.67 227.333 3011.6 220.533C3016.93 219.067 3028.4 218.267 3049.07 217.733L3078.67 216.933V168.533V120L3051.73 120.133C3036.8 120.267 3018.93 121.067 3012 122Z" fill="#002F6D"/>
<path d="M1918.47 574.474C1898.07 577.808 1873.93 598.341 1862.87 621.674L1859 629.674V849.274V1069.01H1905.67H1952.33V821.008V573.008L1938.73 573.141C1931.13 573.274 1922.07 573.808 1918.47 574.474Z" fill="#002F6D"/>
<path d="M2053.67 615.669V658.336H2101H2148.33L2148.07 615.936L2147.67 573.669L2100.73 573.269L2053.67 573.003V615.669Z" fill="#002F6D"/>
<path d="M2310.73 574.341C2293 576.474 2278.33 582.341 2263.53 593.407C2256.07 599.141 2245.53 611.007 2241.8 618.074C2240.6 620.474 2240.33 656.207 2240.73 774.074C2241.13 911.674 2241.4 928.341 2243.53 940.741C2255.93 1014.74 2296.87 1054.34 2373 1065.94C2391.13 1068.74 2430.73 1069.01 2447.67 1066.47C2517.4 1056.34 2559.53 1022.74 2578.87 961.808C2585.93 939.674 2588.6 921.408 2589.27 888.074C2590.6 830.474 2583.53 790.608 2565.8 755.941C2545.13 715.808 2511.4 692.607 2463 685.541C2411.27 678.074 2367.67 695.008 2340.33 733.541L2335.67 739.941L2335.27 656.474L2335 573.007L2327.27 573.141C2323.13 573.274 2315.67 573.807 2310.73 574.341ZM2434.73 769.674C2475.53 779.274 2495.4 819.008 2493.27 886.341C2491.93 928.341 2483.13 953.674 2463.93 971.274C2451 983.008 2434.2 989.008 2413.67 989.008C2391.4 989.008 2375.27 982.741 2361.53 969.141C2343.67 951.408 2335 922.341 2335 881.008C2335 816.474 2356.73 777.274 2397 769.008C2405.8 767.274 2425.8 767.541 2434.73 769.674Z" fill="#002F6D"/>
<path d="M3057.67 685.803C2990.47 691.803 2937.13 726.203 2908.6 781.936C2887 824.203 2880.73 875.803 2891 926.336C2898.33 962.47 2915.8 995.403 2940.33 1019.67C2963.53 1042.74 2991.27 1056.87 3028.07 1064.6C3043 1067.67 3048.07 1068.07 3071.67 1068.2C3091.4 1068.2 3101.53 1067.54 3110.6 1065.94C3168.33 1055.14 3205.8 1028.07 3229.13 980.336C3233 972.203 3237.67 961.67 3239.53 956.603L3242.87 947.67H3199H3155L3152.2 953.27C3143.67 969.936 3123.4 985.136 3101.53 991.136C3089.93 994.47 3059.53 994.47 3046.47 991.136C3027 986.47 3011.27 975.67 3001.53 960.603C2993.8 948.603 2989.13 932.736 2986.47 908.736L2985.67 902.336L3117.4 902.07L3249 901.67L3249.4 887.003C3252.07 795.803 3204.73 718.736 3131.27 694.47C3111.93 687.936 3077.93 684.07 3057.67 685.803ZM3099.93 765.27C3112.33 769.67 3121.67 776.603 3128.87 786.87C3138.2 799.936 3143.27 811.67 3147.53 830.336L3149.4 838.336H3067.67H2985.8L2986.6 833.27C2987.93 823.27 2992.6 808.203 2996.73 800.336C3002.6 789.27 3016.07 776.07 3028.07 769.803C3041.93 762.736 3050.87 761.003 3072.33 761.536C3087.53 761.803 3091.8 762.47 3099.93 765.27Z" fill="#002F6D"/>
<path d="M2807.53 687.672C2720.87 694.872 2667.93 740.339 2651.67 821.539C2646.33 848.739 2645.67 863.005 2645.67 967.939V1067.67H2693.67H2741.53L2742.07 957.272C2742.47 855.939 2742.6 846.339 2744.87 839.005C2751.4 817.139 2763.13 801.672 2779.53 793.672C2792.07 787.405 2804.33 785.005 2823.67 785.005C2832.47 785.005 2844.6 784.605 2850.73 784.072L2861.67 783.272V734.872V686.339L2840.73 686.472C2829.13 686.605 2814.2 687.139 2807.53 687.672Z" fill="#002F6D"/>
<path d="M2053.67 885.674V1069.01H2101H2148.33V885.674V702.341H2101H2053.67V885.674Z" fill="#002F6D"/>
</g>
<defs>
<clipPath id="clip0_80_5301">
<rect width="4666.67" height="1146.67" fill="white"/>
</clipPath>
</defs>
</svg>
