<svg width="327" height="283" viewBox="0 0 327 283" fill="none" xmlns="http://www.w3.org/2000/svg">
<path d="M0 141.331V282.664H163.333H326.667V141.331V-0.00261891H163.333H0V141.331ZM120.4 48.6641C130.667 51.3307 137.733 55.0641 144.933 61.7307C152.8 68.9307 158.267 77.0641 161.2 85.7307L163.6 92.6641L165.2 87.1974C167.067 80.1307 175.6 67.1974 181.733 61.7307C207.6 39.064 246.267 42.7974 266.933 69.9974C274.133 79.3307 277.6 89.3307 278.4 102.264L279.067 113.331H232.8C207.467 113.331 186.667 113.597 186.667 113.997C186.667 116.531 190.933 124.264 194.667 128.531C206.4 141.731 227.733 143.597 242.133 132.664C246.133 129.597 247.6 129.331 260 129.331H273.467L271.2 133.597C268.267 139.331 257.733 150.264 251.467 154.264C233.867 165.464 209.6 165.864 191.2 155.331C180.267 148.931 170.8 137.731 166 124.931L163.6 118.664L160.8 125.731C147.467 158.397 112 172.131 80.4 156.664C65.2 149.197 54.5333 135.864 49.8667 118.264C38.9333 77.3307 78.9333 37.864 120.4 48.6641ZM171.467 188.264C170.933 191.464 170.133 196.664 169.733 199.997L168.933 205.997L172.267 203.064C176.267 199.331 182.8 197.864 186.533 199.864C191.6 202.664 192.267 205.731 190.533 220.664L188.933 234.664H184.533C179.333 234.664 179.467 234.931 181.333 220.397C182 215.064 182.267 209.731 181.867 208.664C180 203.997 172.4 208.531 169.6 216.131C168.8 217.997 167.867 222.931 167.333 227.064C166.4 234.664 166.4 234.664 161.733 234.664H157.2L157.867 228.931C159.067 220.131 162.667 187.997 162.667 185.997C162.667 184.131 165.067 183.064 169.867 182.797C172 182.664 172.267 183.331 171.467 188.264ZM242.267 192.931C240.4 213.331 238.533 231.464 238 232.931C237.733 233.864 235.6 234.664 233.333 234.664C230.133 234.664 229.333 234.131 229.333 231.731C229.333 227.597 233.467 187.731 234 185.597C234.4 184.797 236.533 183.997 238.8 183.997H243.067L242.267 192.931ZM78.9333 203.864C85.7333 211.597 83.2 226.664 74.1333 232.664C65.6 238.264 54.1333 235.864 49.8667 227.731C47.0667 222.264 48 212.397 51.7333 207.064C58.4 197.731 72 196.131 78.9333 203.864ZM116.667 201.464C117.733 202.531 118.933 204.931 119.333 206.931C120.133 209.864 119.467 211.331 116.267 214.664C112.667 218.131 111.333 218.664 104.8 218.664C98.2667 218.664 97.3333 219.064 97.3333 221.197C97.3333 225.731 101.2 228.264 107.2 227.731C110.267 227.331 113.733 226.664 114.933 226.131C117.067 225.197 117.2 225.464 115.867 229.197C113.2 236.931 98.4 238.264 92 231.331C86.2667 225.197 87.2 211.197 93.8667 204.531C99.6 198.797 112.4 197.064 116.667 201.464ZM149.867 199.464C151.067 199.864 152 201.864 152 203.864C152 207.197 151.6 207.331 145.2 207.331C136.933 207.331 133.333 210.797 133.333 218.797C133.333 225.731 137.6 228.664 145.867 227.597C151.467 226.797 151.6 226.797 150.933 230.131C149.333 238.931 130.8 237.197 126 227.864C122.933 222.131 123.467 213.197 127.067 207.864C131.867 200.664 142.667 196.664 149.867 199.464ZM220.533 199.464C221.733 199.864 222.667 201.731 222.667 203.597C222.667 206.797 222.267 206.931 217.867 206.264C208.667 204.797 206.267 208.664 213.867 213.064C222.933 218.397 224.8 225.864 218.667 231.997C215.2 235.464 210.533 236.531 203.333 235.464C197.867 234.531 197.333 234.131 197.333 230.797C197.333 227.064 197.467 227.064 204.933 227.197C214.933 227.331 216 224.397 208 219.331C200.933 214.797 198.8 210.397 201.467 205.597C204.667 199.731 213.867 196.931 220.533 199.464ZM275.2 201.464C278.533 204.131 279.6 208.131 277.867 212.664C276.533 215.997 270.133 218.664 263.467 218.664C256.533 218.664 255.6 219.597 257.733 224.131C259.6 227.864 265.867 229.064 272.133 226.797C275.2 225.731 276 225.864 276 227.197C276 233.597 264.133 237.997 256.133 234.664C246.267 230.664 244.267 216.131 252.267 205.997C257.867 198.797 268.933 196.531 275.2 201.464Z" fill="#FF0000"/>
<path d="M99.6 70.7992C82.4 74.9326 72.1333 87.8659 72 105.466C72 126.266 88.6667 141.466 109.6 139.733C127.733 138.266 139.867 125.333 141.067 106.533C142 91.9992 135.2 80.2659 122.267 74.1326C114 70.2659 106.533 69.0659 99.6 70.7992Z" fill="#FF0000"/>
<path d="M214.533 70.7974C208.133 71.7307 202.533 74.2641 198 78.2641C194.4 81.4641 189.333 87.9974 189.333 89.4641C189.333 90.1307 203.466 90.6641 220.666 90.6641C240.666 90.6641 252 90.1307 252 89.3307C252 86.7974 242.266 77.1974 237.066 74.5307C230.266 71.0641 222 69.7307 214.533 70.7974Z" fill="#FF0000"/>
<path d="M61.3332 209.065C57.3332 212.265 56.1332 221.865 59.3332 225.332C62.5332 228.932 66.1332 228.665 69.9998 224.665C74.3998 220.399 74.7998 210.132 70.7998 207.999C67.0665 206.132 64.6665 206.265 61.3332 209.065Z" fill="#FF0000"/>
<path d="M101.334 208.664C97.467 212.797 98.5336 214.13 105.067 212.53C108.667 211.597 110 210.664 110 208.664C110 204.664 105.067 204.664 101.334 208.664Z" fill="#FF0000"/>
<path d="M260.4 208.928C257.333 211.994 257.066 212.661 258.933 213.061C263.333 213.861 270 211.328 270 208.528C270 204.394 264.666 204.528 260.4 208.928Z" fill="#FF0000"/>
</svg>
