<svg width="128" height="40" viewBox="0 0 128 40" fill="none" xmlns="http://www.w3.org/2000/svg">
<g clip-path="url(#clip0_73_5339)">
<path d="M125.179 0.827587C123.802 0.386207 121.167 0 118.411 0C108.469 0 96.6696 6.78621 88.7036 17.5448C84.6307 23.0621 83.6125 25.7655 83.6125 25.7655C83.6125 25.7655 83.8521 20.9104 83.1333 17.8207C82.7141 15.8345 81.9354 15.2828 80.7974 15.0069C79.1204 14.6207 77.5032 15.4483 76.5449 16.4414C77.623 17.3793 78.5214 19.2 78.761 21.1862C79.0605 23.7242 79.1204 26.0966 79.1803 30.7311C79.1803 31.5035 79.0006 31.8345 79.6594 31.8345H83.3729C84.1516 31.8345 84.6307 31.5587 84.8703 31.1173C86.3078 27.9173 90.3806 20.1931 95.292 15.4483C103.557 7.50346 110.625 4.80001 118.172 4.80001C121.765 4.80001 124.161 5.24139 125.778 6.17932C127.276 5.73794 129.013 2.09655 125.179 0.827587Z" fill="#FEC600"/>
<path d="M57.0795 28.3013C58.0977 28.3013 58.9362 29.0737 58.9362 30.0117C58.9362 30.9496 58.0378 31.722 57.0795 31.722H49.413C49.0536 31.722 48.6942 31.7281 48.3349 31.7343L48.3303 31.7344C47.613 31.7466 46.8959 31.7588 46.1786 31.722C45.2802 31.722 44.3219 30.8944 44.3219 30.0117C44.3219 29.5151 44.4417 29.0737 44.8011 28.6875L52.6473 19.86H46.1786C45.2203 19.86 44.3219 19.0875 44.3219 18.1496C44.3219 17.2116 45.1604 16.4392 46.1786 16.4392H56.8399C57.9779 16.4392 58.8164 17.2668 58.8164 18.2599C58.8164 18.7013 58.6367 19.1428 58.3373 19.4738L50.4911 28.3013H57.0795Z" fill="#FF0000"/>
<path fill-rule="evenodd" clip-rule="evenodd" d="M76.7254 29.9566V23.8877C76.7254 19.529 73.3114 16.1634 68.1006 16.1634C63.3689 16.1634 59.4757 19.7497 59.4757 24.1083C59.4757 28.6876 62.6501 32.0532 67.5016 32.0532C69.6578 32.0532 71.7542 30.7841 72.2333 29.791C72.2333 31.1703 73.2515 32.0532 74.4494 32.0532C75.7072 32.0532 76.6655 31.0048 76.6655 29.8462L76.7254 29.9566ZM67.9808 28.2463C70.5563 28.2463 72.1734 26.3703 72.1734 24.0531C72.1734 21.7358 70.7359 19.86 68.1605 19.86C65.5251 19.86 64.0876 21.7358 64.0876 24.0531C64.0876 26.3703 65.4053 28.2463 67.9808 28.2463Z" fill="#FF0000"/>
<path fill-rule="evenodd" clip-rule="evenodd" d="M108.649 24.0533C108.649 19.4188 105.115 16.1083 100.383 16.1083C95.6517 16.1083 91.8784 19.6946 91.8784 24.0533C91.8784 28.4119 95.7116 31.9981 100.443 31.9981C102.779 31.9981 105.295 31.336 107.211 29.736C107.75 29.2947 107.99 28.0808 107.211 27.3084C106.433 26.5911 105.235 26.6464 104.396 27.2533C103.378 27.9153 102.24 28.467 100.623 28.467C98.4069 28.467 96.7897 27.198 96.5502 25.4325H107.032C107.87 25.4325 108.649 24.8809 108.649 24.0533ZM96.6101 22.4532H104.157C103.797 20.8532 102.36 19.6394 100.383 19.6394C98.347 19.6394 97.0293 20.7428 96.6101 22.4532Z" fill="#FF0000"/>
<path fill-rule="evenodd" clip-rule="evenodd" d="M127.276 29.9566V23.8877C127.276 19.529 123.862 16.1634 118.652 16.1634C113.92 16.1634 110.027 19.7497 110.027 24.1083C110.027 28.6876 113.201 32.0532 118.053 32.0532C120.209 32.0532 122.305 30.7841 122.784 29.791C122.784 31.1703 123.802 32.0532 125 32.0532C126.258 32.0532 127.216 31.0048 127.216 29.8462L127.276 29.9566ZM118.532 28.2463C121.107 28.2463 122.724 26.3703 122.724 24.0531C122.724 21.7358 121.287 19.86 118.711 19.86C116.136 19.86 114.639 21.7358 114.639 24.0531C114.639 26.3703 115.956 28.2463 118.532 28.2463Z" fill="#FF0000"/>
<path fill-rule="evenodd" clip-rule="evenodd" d="M9.04411 16.1083C13.656 16.1083 17.1898 19.6946 17.1898 24.0533C17.1898 28.4119 13.656 31.9981 9.04411 31.9981C6.94779 31.9981 5.09106 30.8395 4.552 29.8464V37.9016C4.552 39.0602 3.53379 39.9981 2.276 39.9981C1.01821 39.9981 0 39.0602 0 37.9016V18.2601C0 17.1014 1.01821 16.1083 2.21611 16.1083C3.23432 16.1083 4.37232 16.9912 4.37232 18.3705C5.21085 17.1567 6.94779 16.1083 9.04411 16.1083ZM12.6378 24.0533C12.6378 26.3705 11.2003 28.2463 8.56495 28.2463C5.98948 28.2463 4.49211 26.3705 4.49211 24.0533C4.49211 21.736 5.92958 19.8602 8.56495 19.8602C11.2003 19.8602 12.6378 21.736 12.6378 24.0533Z" fill="#FF0000"/>
<path d="M23.5388 10.3153V29.9016C23.5388 31.0602 22.5206 31.9981 21.2628 31.9981C20.0649 31.9981 18.9868 31.0602 18.9868 29.9016V10.3153C18.9868 9.21186 20.005 8.21875 21.2628 8.21875C22.5206 8.21875 23.5388 9.15669 23.5388 10.3153Z" fill="#FF0000"/>
<path fill-rule="evenodd" clip-rule="evenodd" d="M42.5251 29.9015V23.8326C42.5251 19.4739 39.1111 16.1083 33.9003 16.1083C29.1686 16.1083 25.2754 19.6945 25.2754 24.0532C25.2754 28.6325 28.4498 31.9981 33.3013 31.9981C35.4575 31.9981 37.5539 30.7291 38.033 29.736C38.033 31.1153 39.0512 31.9981 40.2491 31.9981C41.5069 31.9981 42.4652 30.9497 42.4652 29.7911L42.5251 29.9015ZM33.7805 28.1912C36.356 28.1912 37.9731 26.3153 37.9731 23.9981C37.9731 21.6808 36.5356 19.805 33.9602 19.805C31.3248 19.805 29.8873 21.6808 29.8873 23.9981C29.8873 26.3153 31.205 28.1912 33.7805 28.1912Z" fill="#FF0000"/>
</g>
<defs>
<clipPath id="clip0_73_5339">
<rect width="128" height="40" fill="white"/>
</clipPath>
</defs>
</svg>
