<svg width="908" height="192" viewBox="0 0 908 192" fill="none" xmlns="http://www.w3.org/2000/svg">
<path d="M599.437 111.812C599.437 114.427 599.437 116.567 599.437 119.071C589.669 119.071 580.277 119.071 570.264 119.071C570.264 102.813 570.264 86.6457 570.264 70.4782C569.95 70.4055 569.637 70.3328 569.324 70.26C564.409 77.4513 559.507 84.6522 554.574 91.8309C550.407 97.8939 540.639 97.9703 536.519 91.9873C531.546 84.7642 526.584 77.5329 520.7 68.9693C520.7 86.542 520.7 102.668 520.7 119.11C510.585 119.11 501.188 119.11 491.49 119.11C491.49 87.1798 491.49 55.4501 491.49 23.011C499.119 23.011 506.715 22.8471 514.292 23.1625C515.653 23.2191 517.214 25.0471 518.203 26.4063C527.188 38.7586 536.067 51.1885 544.965 63.5796C553.428 51.3005 561.963 39.0871 570.276 26.7248C572.161 23.922 574.197 22.7887 577.596 22.9158C584.708 23.1819 591.838 22.9965 599.438 22.9965C599.438 52.7565 599.438 82.0477 599.437 111.812Z" fill="#020101"/>
<path d="M412.758 22.6835C430.603 20.1137 447.206 21.4999 460.845 34.1305C475.485 47.6868 480.175 71.5296 472.573 91.3634C465.497 109.824 448.783 120.832 426.763 121.417C409.826 121.866 394.773 117.554 383.816 103.619C360.839 74.3971 376.572 29.8643 412.758 22.6835ZM404.502 80.6318C404.869 81.9084 405.179 83.2051 405.613 84.4584C408.97 94.1386 415.952 99.2644 425.332 98.9671C434.361 98.6809 441.824 93.2344 443.744 83.5899C445.14 76.5769 445.509 68.9862 444.441 61.9407C442.694 50.4266 434.656 44.0567 424.389 44.1339C414.324 44.2096 406.934 50.4638 404.848 61.9395C403.795 67.7326 404.414 73.8297 404.502 80.6318Z" fill="#020101"/>
<path d="M727.568 77.0008C727.568 58.862 727.568 41.2231 727.568 22.9993C735.411 22.9993 742.856 22.7566 750.28 23.0552C761.891 23.5223 773.734 23.1028 785.033 25.3255C802.301 28.7222 810.244 44.1271 805.056 60.842C802.576 68.8335 796.994 73.6195 789.249 76.3601C798.333 90.4681 807.344 104.463 816.971 119.413C805.752 119.413 795.804 119.538 785.868 119.259C784.578 119.223 783.034 117.296 782.139 115.903C776.832 107.642 771.596 99.3311 766.521 90.9248C764.443 87.4827 761.89 85.8693 757.334 87.3268C757.334 97.6764 757.334 108.246 757.334 119.119C747.336 119.119 737.897 119.119 727.567 119.119C727.567 105.309 727.567 91.4051 727.568 77.0008ZM757.123 54.562C757.123 58.646 757.123 62.7301 757.123 67.3632C764.075 66.4661 771.419 69.7772 775.682 62.2187C778.052 58.0162 777.841 53.4102 774.806 49.5809C770.107 43.6525 763.54 45.7618 757.123 45.421C757.123 48.6458 757.123 51.1195 757.123 54.562Z" fill="#010101"/>
<path d="M277.997 47.0037C277.997 38.8697 277.997 31.2356 277.997 23.0006C288.603 23.0006 298.878 22.743 309.133 23.0791C317.913 23.3668 326.881 23.366 335.395 25.2068C352.279 28.8572 360.233 42.9848 355.92 59.7149C353.703 68.3129 347.864 73.5315 339.799 76.4248C348.943 90.6139 357.924 104.548 367.496 119.4C356.368 119.4 346.269 119.504 336.178 119.259C335.018 119.231 333.63 117.433 332.815 116.157C327.441 107.746 322.154 99.2787 316.928 90.774C314.859 87.4063 312.278 85.7274 307.909 87.4238C307.909 97.7381 307.909 108.19 307.909 119.038C297.805 119.038 288.089 119.038 277.997 119.038C277.997 95.1033 277.997 71.3035 277.997 47.0037ZM309.625 67.1721C311.951 67.1854 314.278 67.244 316.603 67.2034C323.296 67.0868 327.133 63.6885 327.585 57.5311C328.06 51.067 324.225 46.3029 317.626 45.5955C314.55 45.2657 311.409 45.5391 307.418 45.5391C307.853 53.0196 308.26 60.0164 309.625 67.1721Z" fill="#020101"/>
<path d="M698.992 81.9723C704.263 94.3929 709.414 106.451 714.933 119.369C704.603 119.369 694.868 119.395 685.134 119.311C684.486 119.305 683.707 118.571 683.24 117.978C682.744 117.347 682.541 116.483 682.22 115.717C680.297 111.141 679.576 104.609 676.141 102.502C672.212 100.092 665.872 101.487 660.578 101.458C646.872 101.383 646.67 101.36 641.975 114.28C640.445 118.488 638.333 119.764 634.012 119.537C626.539 119.144 619.031 119.4 611.539 119.364C611.237 119.362 610.936 119.153 610.089 118.838C611.708 114.929 613.3 111.018 614.941 107.128C626.245 80.339 637.605 53.5736 648.8 26.7391C649.993 23.881 651.336 22.5669 654.566 22.7814C659.042 23.0786 663.581 23.1729 668.04 22.765C672.344 22.3712 674.426 23.8311 676.101 27.9186C683.469 45.9071 691.245 63.7284 698.992 81.9723ZM664.231 80.6515C665.784 80.5413 667.337 80.431 669.365 80.2871C666.739 72.5192 664.341 65.4256 661.668 57.5161C658.881 65.6818 656.437 72.8432 653.772 80.6516C657.419 80.6516 660.371 80.6516 664.231 80.6515Z" fill="#020101"/>
<path d="M88.4838 16.5376C97.257 23.8903 105.766 31.0065 114.857 38.6093C115.093 36.0625 115.184 34.3147 115.426 32.5881C116.549 24.5738 120.979 20.7693 128.858 20.9946C136.048 21.2001 140.709 25.7167 140.902 33.5408C141.182 44.8628 141.182 56.201 140.915 67.5232C140.782 73.1359 137.569 77.3022 132.418 79.4687C127.515 81.5308 123.124 80.1979 119.06 76.7381C102.598 62.7241 86.0251 48.8397 69.2857 34.7328C53.7508 48.7028 38.4328 62.5076 23.0778 76.2711C17.0847 81.6431 10.5224 81.7969 5.24525 76.8154C-1.01059 70.91 -0.871345 63.553 5.96209 57.3172C18.6262 45.7606 31.4425 34.3709 44.1937 22.9098C52.4622 15.4778 60.7276 8.04234 69.2106 0.414062C75.7434 5.87402 81.9815 11.0877 88.4838 16.5376Z" fill="#FD5000"/>
<path d="M201.017 119.433C196.397 119.433 192.271 119.433 187.864 119.433C187.864 87.1678 187.864 55.4187 187.864 23.3155C189.004 23.2078 190.101 22.9968 191.194 23.017C205.672 23.2845 220.222 22.7839 234.609 24.0808C252.239 25.67 262.41 37.8013 263.265 54.3459C264.244 73.2773 250.209 85.6218 235.503 87.9268C229.637 88.8462 223.648 88.9747 217.139 89.5108C217.139 94.3876 217.139 99.3359 217.139 104.284C217.139 109.1 217.139 113.916 217.139 119.433C211.715 119.433 206.613 119.433 201.017 119.433ZM221.476 45.7891C220.03 46.6021 217.376 47.3524 217.33 48.238C216.98 54.9901 217.138 61.7686 217.138 68.4513C227.987 70.091 233.187 67.1259 233.959 59.2318C234.83 50.3299 231.239 46.1569 221.476 45.7891Z" fill="#010101"/>
<path d="M861 119.409C855.857 119.409 851.214 119.409 845.953 119.409C845.953 95.2124 845.953 71.3521 845.953 47.0724C836.426 47.0724 827.51 47.0724 818.301 47.0724C818.301 38.9336 818.301 31.2197 818.301 23.25C847.84 23.25 877.233 23.25 907.26 23.25C905.446 31.154 903.68 38.844 901.817 46.9611C893.356 46.9611 884.937 46.9611 876.109 46.9611C876.109 71.1452 876.109 94.8751 876.109 119.409C870.972 119.409 866.236 119.409 861 119.409Z" fill="black"/>
<path d="M68 124.001C50.345 124.001 33.1897 124.065 16.0353 123.975C6.29765 123.924 0.659026 116.296 3.37939 107.14C4.87939 102.091 8.42425 99.0834 13.929 98.7519C18.5763 98.472 23.2499 98.5994 27.9119 98.5982C60.2231 98.5892 92.5344 98.5652 124.846 98.6107C134.874 98.6249 140.439 105.047 138.544 114.178C137.222 120.551 132.784 123.966 125.461 123.984C106.474 124.032 87.487 124.001 68 124.001Z" fill="#FD5000"/>
<path d="M355.822 181.909C355.822 185.052 355.822 187.711 355.822 190.759C353.47 190.759 351.274 190.759 348.81 190.759C348.81 178.309 348.81 165.895 348.81 153.486C353.177 151.895 355.938 153.399 358.244 157.259C361.115 162.065 364.552 166.534 368.049 171.588C371.236 166.649 374.409 162.241 377.022 157.524C379.187 153.616 381.89 151.902 386.539 153.417C386.539 165.697 386.539 178.123 386.539 190.85C384.512 190.85 382.423 190.85 379.901 190.85C379.901 183.041 379.901 175.275 379.901 167.509C379.522 167.337 379.143 167.166 378.764 166.994C376.49 170.475 374.232 173.966 371.938 177.433C369.096 181.731 367.091 181.775 364.112 177.559C361.659 174.085 359.283 170.557 355.822 167.285C355.822 171.998 355.822 176.712 355.822 181.909Z" fill="#FFF9F5"/>
<path d="M667.562 162.086C667.562 158.95 667.562 156.299 667.562 153.32C669.931 153.32 672.001 153.32 674.45 153.32C674.45 165.615 674.45 178.018 674.45 190.686C670.638 191.974 667.691 191.157 665.016 187.388C659.837 180.094 654.158 173.156 647.794 164.914C647.794 174.312 647.794 182.442 647.794 190.856C645.03 190.856 642.943 190.856 640.515 190.856C640.515 178.472 640.515 166.094 640.515 153.375C644.731 152.387 648.005 152.852 650.884 157.062C655.646 164.024 661.118 170.501 667.562 177.075C667.562 172.24 667.562 167.406 667.562 162.086Z" fill="#FFF9F5"/>
<path d="M302.202 163.97C307.328 181.948 295.693 194.979 278.491 191.029C269.019 188.854 263.819 180.478 264.945 169.207C265.832 160.318 273.316 153.31 282.146 152.829C291.057 152.344 298.171 154.947 302.202 163.97ZM294.636 165.23C292.744 161.616 289.996 159.235 285.751 158.865C281.31 158.477 277.413 159.487 274.831 163.367C271.533 168.325 271.308 173.641 273.662 179.042C275.678 183.667 279.472 185.865 284.35 185.795C289.261 185.724 293.46 183.365 294.643 178.609C295.635 174.62 294.898 170.201 294.636 165.23Z" fill="#FFFAF6"/>
<path d="M194.806 160.075C194.806 163.163 194.806 165.773 194.806 168.618C200.944 168.618 206.529 168.618 212.721 168.618C212.721 163.505 212.721 158.465 212.721 153.219C215.394 153.219 217.463 153.219 219.77 153.219C219.77 165.784 219.77 178.177 219.77 190.856C217.598 190.856 215.534 190.856 212.983 190.856C212.983 185.77 212.983 180.698 212.983 175.324C206.793 175.324 201.078 175.324 194.862 175.324C194.862 180.449 194.862 185.521 194.862 190.857C192.286 190.857 190.205 190.857 187.852 190.857C187.852 178.357 187.852 165.952 187.852 153.271C190.017 153.271 192.107 153.271 194.806 153.271C194.806 155.373 194.806 157.485 194.806 160.075Z" fill="#FFFDFB"/>
<path d="M857.859 174.001C857.859 166.872 857.859 160.242 857.859 152.999C861.891 152.999 865.658 152.9 869.418 153.022C875.802 153.229 879.721 155.742 881.211 160.381C882.795 165.314 881.327 168.932 875.631 173.791C879.021 179.32 882.442 184.899 885.927 190.584C880.556 192.115 876.928 191.069 874.753 185.984C873.593 183.27 871.823 180.756 869.991 178.416C869.036 177.197 867.349 176.552 865.061 175.027C865.061 181.12 865.061 185.867 865.061 190.872C862.569 190.872 860.504 190.872 857.859 190.872C857.859 185.367 857.859 179.934 857.859 174.001ZM865.109 169.912C867.739 169.461 870.818 169.674 872.83 168.311C874.041 167.49 874.612 163.186 873.675 162.257C871.683 160.282 868.52 159.488 865.011 157.817C865.011 162.734 865.011 165.879 865.109 169.912Z" fill="#FFFDFB"/>
<path d="M443.691 168.837C446.839 168.841 449.491 168.841 452.478 168.841C452.478 170.842 452.478 172.552 452.478 174.758C448.597 174.758 444.837 174.758 440.763 174.758C440.763 178.31 440.763 181.38 440.763 184.869C445.248 184.869 449.692 184.869 454.57 184.869C454.667 186.983 454.746 188.713 454.841 190.805C447.646 190.805 440.748 190.805 433.512 190.805C433.512 178.459 433.512 166.077 433.512 153.336C440.382 153.336 447.273 153.336 454.528 153.336C453.961 155.165 453.432 156.871 452.777 158.985C448.843 158.985 444.921 158.985 440.262 158.985C441.887 162.536 437.367 166.885 443.691 168.837Z" fill="#FFF9F5"/>
<path d="M792.398 153.103C799.315 153.008 805.77 153.008 812.643 153.008C811.962 155.189 811.426 156.904 810.771 159.002C806.85 159.002 802.939 159.002 798.738 159.002C798.738 162.312 798.738 165.205 798.738 168.606C802.621 168.606 806.353 168.606 810.447 168.606C810.447 170.807 810.447 172.511 810.447 174.702C806.673 174.702 802.921 174.702 798.807 174.702C798.807 178.229 798.807 181.291 798.807 184.92C803.279 184.92 807.845 184.92 812.607 184.92C812.607 187.23 812.607 188.987 812.607 190.94C805.472 190.94 798.54 190.94 791.936 190.94C791.936 178.214 791.936 165.706 792.398 153.103Z" fill="#FFF9F5"/>
<path d="M498.127 169.45C500.605 156.201 511.516 150.895 524.845 153.255C529.638 154.103 528.418 157.455 528.226 160.846C520.764 158.085 513.469 156.506 508.052 164.152C504.67 168.927 505.009 176.553 508.753 180.958C514.183 187.348 520.795 185.739 527.702 183.078C528.312 184.653 528.884 186.131 529.591 187.956C522.4 192.464 515.014 193.2 507.734 189.589C499.765 185.636 497.449 178.338 498.127 169.45Z" fill="#FFF9F5"/>
<path d="M573.863 180.976C573.863 171.519 573.863 162.558 573.863 153.297C581.023 153.297 587.888 153.297 594.876 153.297C593.768 163.038 586.066 157.243 581.37 159.56C581.37 162.193 581.37 165.235 581.37 168.762C585.099 168.762 588.85 168.762 592.843 168.762C592.843 170.945 592.843 172.65 592.843 174.668C588.941 174.668 585.32 174.668 581.351 174.668C581.351 178.059 581.351 181.148 581.351 184.848C585.644 184.848 590.189 184.848 594.908 184.848C594.908 187.19 594.908 188.925 594.908 190.898C587.941 190.898 581.197 190.898 573.863 190.898C573.863 187.682 573.863 184.577 573.863 180.976Z" fill="#FFFEFC"/>
<path d="M729.166 161.198C727.685 160.149 726.256 159.307 724.736 159.083C722.805 158.798 720.8 159.014 718.508 159.014C718.508 156.97 718.508 155.259 718.508 153.258C728.327 153.258 738.071 153.258 748.361 153.258C747.826 155.243 747.335 157.068 746.795 159.071C743.453 159.071 740.317 159.071 736.652 159.071C736.652 169.673 736.652 180.054 736.652 190.787C734.067 190.787 732.006 190.787 729.177 190.787C729.177 181.147 729.177 171.413 729.166 161.198Z" fill="#FFFAF6"/>
</svg>
