<svg width="155" height="24" viewBox="0 0 155 24" fill="none" xmlns="http://www.w3.org/2000/svg">
<mask id="mask0_79_5362" style="mask-type:luminance" maskUnits="userSpaceOnUse" x="0" y="0" width="155" height="24">
<path d="M154.839 0H0V24H154.839V0Z" fill="white"/>
</mask>
<g mask="url(#mask0_79_5362)">
<path fill-rule="evenodd" clip-rule="evenodd" d="M48.3402 19.0178C48.3402 20.0415 48.0821 20.9275 47.5658 21.6759C47.0495 22.4243 46.3268 23.0006 45.3975 23.3963C44.4682 23.792 43.4098 23.9899 42.2052 23.9899C41.8696 23.9899 41.4566 23.9727 40.9747 23.9211C40.4843 23.878 39.8389 23.7576 39.0387 23.5598C38.2299 23.3619 37.3952 23.0694 36.5176 22.6824V18.6651C37.335 19.1813 38.1438 19.6028 38.9355 19.9383C39.7271 20.2737 40.5703 20.4458 41.4738 20.4458C42.3084 20.4458 42.8505 20.3082 43.0914 20.0243C43.341 19.749 43.4614 19.4824 43.4614 19.2415C43.4614 18.8028 43.2549 18.4243 42.8333 18.1232C42.4117 17.8221 41.8008 17.5039 41.0005 17.1856C40.1143 16.8071 39.3313 16.3942 38.6601 15.9469C37.989 15.4996 37.4383 14.9404 37.0166 14.2781C36.595 13.6071 36.3799 12.8157 36.3799 11.9039C36.3799 10.992 36.595 10.2264 37.0252 9.51245C37.4555 8.79847 38.1094 8.23073 38.9871 7.80062C39.8647 7.37912 40.9403 7.16406 42.2138 7.16406C43.1173 7.16406 43.9519 7.25008 44.7177 7.43073C45.4835 7.61137 46.1202 7.80922 46.6193 8.02428C47.1184 8.24793 47.4626 8.41998 47.6519 8.54901V12.3942C46.9893 11.9125 46.2493 11.4824 45.4405 11.1039C44.6231 10.7254 43.754 10.5361 42.8247 10.5361C42.2138 10.5361 41.775 10.6565 41.5082 10.8888C41.2329 11.1211 41.0952 11.4135 41.0952 11.7662C41.0952 12.0931 41.2329 12.3684 41.5082 12.6092C41.7836 12.8415 42.2654 13.134 42.971 13.4694C44.2186 14.063 45.2168 14.5963 45.9654 15.0694C46.714 15.5426 47.2991 16.0845 47.7207 16.7039C48.1423 17.3232 48.3574 18.0888 48.3574 19.0178" fill="#E1081F"/>
<path fill-rule="evenodd" clip-rule="evenodd" d="M68.2256 15.7338C68.2256 17.2392 67.8814 18.6156 67.2017 19.8801C66.5133 21.1446 65.498 22.1425 64.1385 22.8908C62.7875 23.6306 61.1355 24.0091 59.1909 24.0091C57.2462 24.0091 55.5597 23.622 54.2002 22.8478C52.8407 22.0736 51.8254 21.0586 51.1628 19.7941C50.5003 18.5295 50.1733 17.179 50.1733 15.7425C50.1733 14.3059 50.5003 12.9468 51.1628 11.6822C51.8168 10.4263 52.8321 9.41126 54.2002 8.63707C55.5683 7.86287 57.229 7.48438 59.1995 7.48438C60.6708 7.48438 61.9787 7.70802 63.1317 8.14673C64.2847 8.58544 65.2312 9.1876 65.9712 9.94459C66.7112 10.7016 67.2791 11.579 67.6577 12.5769C68.0363 13.5833 68.2342 14.6328 68.2342 15.7425M63.3468 15.7425C63.3468 15.1403 63.2608 14.5898 63.0801 14.0908C62.8994 13.5919 62.6413 13.1618 62.2799 12.7919C61.9271 12.422 61.4883 12.1382 60.9806 11.9317C60.4643 11.7252 59.8706 11.622 59.1995 11.622C57.9174 11.622 56.902 12.0005 56.1707 12.7575C55.4393 13.5145 55.0693 14.5123 55.0693 15.7425C55.0693 16.9726 55.4393 17.9704 56.1793 18.736C56.9193 19.5016 57.926 19.8801 59.2081 19.8801C60.0857 19.8801 60.8343 19.708 61.4538 19.3554C62.0734 19.0027 62.5466 18.5123 62.865 17.893C63.1834 17.2736 63.3468 16.5597 63.3468 15.7511" fill="#E1081F"/>
<path fill-rule="evenodd" clip-rule="evenodd" d="M86.6993 16.0308C86.6993 17.6824 86.4067 19.0071 85.813 20.005C85.2193 21.0028 84.5223 21.8114 83.7221 22.4308C82.5777 23.334 80.9859 23.7899 78.938 23.7899H70.3506V7.69531H76.9589C77.9571 7.69531 78.8089 7.74693 79.5145 7.85015C80.2201 7.95338 80.8568 8.09962 81.4247 8.28886C81.9926 8.47811 82.4744 8.69316 82.8703 8.92542C83.2661 9.15768 83.6275 9.41575 83.9372 9.68241C84.4793 10.1297 84.9612 10.663 85.3656 11.2738C85.7786 11.8845 86.097 12.5899 86.3379 13.3985C86.5788 14.2071 86.6993 15.0759 86.6993 16.0222M81.8205 15.8157C81.8205 14.5082 81.571 13.4845 81.0805 12.7533C80.5901 12.0222 79.9963 11.5318 79.2994 11.2824C78.6024 11.0329 77.8968 10.9125 77.1826 10.9125H75.1434V20.4437H77.1826C78.4389 20.4437 79.5231 20.1426 80.4438 19.5404C81.3645 18.9383 81.8205 17.691 81.8205 15.8157Z" fill="#E1081F"/>
<path fill-rule="evenodd" clip-rule="evenodd" d="M88.6611 23.7813H93.4625V7.69531H88.6611V23.7813Z" fill="#E1081F"/>
<path fill-rule="evenodd" clip-rule="evenodd" d="M114.251 23.7813H109.45V14.4566L105.122 19.8587H104.743L100.406 14.4566V23.7813H95.7515V7.69531H100.097L104.984 13.7254L109.897 7.69531H114.251V23.7813Z" fill="#E1081F"/>
<path fill-rule="evenodd" clip-rule="evenodd" d="M134.635 23.7822H129.722L128.423 20.5219H121.513L120.197 23.7822H115.284L122.322 7.6875H127.622L134.635 23.7822ZM127.321 17.7176L124.989 11.8424L122.64 17.7176H127.321Z" fill="#E1081F"/>
<path fill-rule="evenodd" clip-rule="evenodd" d="M149.289 22.5819C148.635 22.926 147.955 23.2099 147.267 23.4163C146.578 23.6228 145.881 23.7776 145.184 23.8636C144.487 23.9497 143.756 24.0013 143.007 24.0013C141.622 24.0013 140.383 23.812 139.282 23.4249C138.18 23.0378 137.234 22.4701 136.425 21.7131C135.616 20.9561 135.014 20.0787 134.609 19.0636C134.205 18.0572 134.007 16.9475 134.007 15.7346C134.007 14.3497 134.248 13.1368 134.721 12.0959C135.195 11.055 135.857 10.1862 136.709 9.49807C137.561 8.8099 138.533 8.30237 139.626 7.96688C140.719 7.64 141.863 7.47656 143.076 7.47656C144.883 7.47656 146.931 7.88086 149.22 8.69807V12.9733C148.428 12.4744 147.654 12.0701 146.888 11.7346C146.122 11.4077 145.21 11.2443 144.169 11.2443C143.24 11.2443 142.379 11.4335 141.579 11.8034C140.779 12.1733 140.125 12.7066 139.643 13.3948C139.153 14.083 138.912 14.8916 138.912 15.812C138.912 16.6206 139.127 17.369 139.557 18.0486C139.987 18.7282 140.581 19.2615 141.338 19.6658C142.104 20.0615 142.956 20.2679 143.92 20.2679C144.694 20.2679 145.425 20.1733 146.114 19.9841C146.802 19.7948 147.379 19.5798 147.852 19.3475C148.325 19.1153 148.807 18.84 149.306 18.5217V22.5991L149.289 22.5819Z" fill="#E1081F"/>
<path fill-rule="evenodd" clip-rule="evenodd" d="M24.2476 2.27957H18.2588V0H15.9786H13.6984V2.27957H7.73548L0 11.1226V23.957H31.9487V11.1226L24.2476 2.27957Z" fill="#1D1D1B"/>
<path fill-rule="evenodd" clip-rule="evenodd" d="M2.28027 21.6808H14.8343V13.4141H2.28027V21.6808Z" fill="#E1081F"/>
<path fill-rule="evenodd" clip-rule="evenodd" d="M17.1143 21.6808H29.6683V13.4141H17.1143V21.6808Z" fill="#FEFEFE"/>
<path fill-rule="evenodd" clip-rule="evenodd" d="M29.1093 11.1111L23.3787 4.53906H11.3926L17.149 11.1111H29.1093Z" fill="#006AB3"/>
<path fill-rule="evenodd" clip-rule="evenodd" d="M14.2752 11.1213L8.65646 4.52344L2.88281 11.1213H14.2752Z" fill="#FFEC00"/>
</g>
</svg>
