<svg width="76" height="14" viewBox="0 0 76 14" fill="none" xmlns="http://www.w3.org/2000/svg">
<g clip-path="url(#clip0_381_2309)">
<path d="M4.95923 7.00048C4.95923 5.90082 5.85061 5.00943 6.95028 5.00943C8.04994 5.00943 8.93879 5.90082 8.93879 7.00048C8.93879 8.10014 8.04867 8.99026 6.95028 8.99026C5.85188 8.99026 4.95923 8.09761 4.95923 7.00048Z" fill="#08813C"/>
<path d="M1.21606 2.86002C1.21606 1.9808 1.92755 1.26804 2.80677 1.26804C3.686 1.26804 4.39976 1.9808 4.39976 2.86002C4.39976 3.73924 3.68701 4.452 2.80677 4.452C1.92654 4.452 1.21606 3.74051 1.21606 2.86002M9.49698 2.86002C9.49698 1.9808 10.2097 1.26703 11.089 1.26703C11.9682 1.26703 12.6832 1.9808 12.6832 2.86002C12.6832 3.73924 11.9682 4.452 11.089 4.45301C10.2097 4.45301 9.49698 3.74026 9.49698 2.86002M9.49698 11.1409C9.49698 10.263 10.2097 9.55149 11.089 9.55149C11.9682 9.55149 12.6832 10.263 12.6832 11.1409C12.6832 12.0189 11.9717 12.7339 11.089 12.7339C10.2062 12.7339 9.49698 12.0189 9.49698 11.1409ZM1.21606 11.1409C1.21606 10.263 1.92755 9.55149 2.80677 9.55149C3.686 9.55149 4.39875 10.263 4.39875 11.1409C4.39875 12.0189 3.68726 12.7339 2.80677 12.7339C1.92628 12.7339 1.21606 12.0189 1.21606 11.1409" fill="#D6D70F"/>
<path d="M0.5 7.0005C0.5 6.01106 1.30093 5.20785 2.29139 5.20785C3.28184 5.20785 4.08277 6.01106 4.08277 7.0005C4.08277 7.98995 3.27956 8.79189 2.29139 8.79189C1.30321 8.79189 0.5 7.98995 0.5 7.0005ZM9.8152 7.0005C9.8152 6.01106 10.6184 5.20785 11.6091 5.20785C12.5998 5.20785 13.4005 6.00979 13.4005 7.0005C13.4005 7.99121 12.5973 8.79189 11.6091 8.79189C10.6209 8.79189 9.8152 7.98995 9.8152 7.0005ZM5.1576 11.6589C5.1576 10.6694 5.95954 9.86621 6.95025 9.86621C7.94096 9.86621 8.74037 10.6694 8.74037 11.6589C8.74037 12.6483 7.93716 13.4503 6.95025 13.4503C5.96335 13.4503 5.1576 12.6483 5.1576 11.6589ZM5.1576 2.34366C5.1576 1.35295 5.96081 0.549744 6.95025 0.549744C7.9397 0.549744 8.74037 1.35295 8.74037 2.34366C8.74037 3.33437 7.93716 4.13277 6.95025 4.13277C5.96335 4.13277 5.1576 3.33184 5.1576 2.34366ZM30.7055 10.2503C29.1834 10.2503 27.9492 9.0136 27.9492 7.48547C27.9492 5.95735 29.1834 4.71681 30.7055 4.71681C32.2275 4.71681 33.4595 5.95608 33.4595 7.48547C33.4595 9.01486 32.224 10.2503 30.7055 10.2503ZM30.7055 1.95194C27.6614 1.95194 25.1927 4.42922 25.1927 7.48547C25.1927 10.5417 27.6614 13.0177 30.7055 13.0177C33.7496 13.0177 36.2157 10.5382 36.2157 7.48547C36.2157 4.43277 33.747 1.95194 30.7055 1.95194ZM75.0764 7.64561C74.8009 7.1804 74.354 6.79451 73.7406 6.48108C73.1294 6.16638 72.1169 5.85422 70.6977 5.54789C70.1246 5.42778 69.7658 5.30186 69.614 5.15971C69.4549 5.02618 69.3776 4.87567 69.3776 4.70667C69.3776 4.47635 69.4719 4.28555 69.6604 4.12745C69.854 3.96452 70.138 3.88243 70.5138 3.88243C70.9716 3.88243 71.3256 3.99012 71.584 4.20447C71.846 4.42111 72.0188 4.7652 72.1007 5.23927L75.1547 5.06292C75.0211 3.96832 74.6013 3.17601 73.8971 2.67635C73.1943 2.17314 72.1732 1.92204 70.8346 1.92204C69.7435 1.92331 68.8828 2.06292 68.2521 2.33961C67.6288 2.61402 67.1598 2.98978 66.8428 3.47474C66.5355 3.95236 66.3799 4.46165 66.3799 5.00414C66.3799 5.82812 66.6835 6.5016 67.2946 7.03547C67.9007 7.56807 68.9122 7.99172 70.3351 8.31377C71.2009 8.50481 71.7568 8.70929 71.9955 8.92491C72.2307 9.138 72.3518 9.38176 72.3518 9.65591C72.3518 9.93007 72.2233 10.1984 71.9735 10.4176C71.7237 10.6281 71.3687 10.7396 70.907 10.7396C70.2862 10.7396 69.8086 10.5278 69.4757 10.1003C69.2699 9.83961 69.1364 9.45625 69.0693 8.95177L65.9859 9.14409C66.0766 10.2093 66.4658 11.0862 67.1517 11.7731C67.8411 12.4626 69.0731 12.8079 70.8558 12.8079C71.8721 12.8079 72.7121 12.6622 73.382 12.3696C74.0481 12.0731 74.5686 11.6399 74.9395 11.0715C75.3143 10.4997 75.5003 9.87888 75.5003 9.20287C75.5003 8.62973 75.3579 8.10853 75.0764 7.64561ZM61.9828 8.52888C61.9828 9.11419 61.8237 9.56596 61.5029 9.88446C61.1895 10.2017 60.7534 10.357 60.1952 10.357C59.637 10.357 59.1911 10.1979 58.8703 9.87812C58.5568 9.55481 58.4 9.1005 58.4 8.52863V2.10169H55.1661V8.37736C55.1661 8.89527 55.2652 9.48792 55.4687 10.1614C55.5911 10.5764 55.8188 10.978 56.153 11.3725C56.4936 11.7668 56.8645 12.0681 57.271 12.2847C57.6751 12.4953 58.1808 12.6349 58.7758 12.7058C59.3831 12.778 59.9428 12.8135 60.4509 12.8135C61.3336 12.8135 62.0892 12.6972 62.7186 12.4633C63.1754 12.2969 63.6039 12.0055 64.0154 11.594C64.4291 11.179 64.7317 10.6927 64.9215 10.1442C65.1173 9.58826 65.2154 8.99915 65.2141 8.37711V2.10169H61.9828V8.52888ZM45.703 4.69983H48.4458V12.6285H51.687V4.69983H54.4275V2.10397H45.703V4.69983ZM36.1972 4.69983H38.9378V12.6285H42.1767V4.69983H44.9182V2.10397H36.1972V4.69983ZM25.2396 2.10346H16.5188V4.69932H19.2604V12.6293H22.5003V4.69958H25.2396V2.10346Z" fill="#5FAB30"/>
</g>
<defs>
<clipPath id="clip0_381_2309">
<rect width="75" height="12.9005" fill="white" transform="translate(0.5 0.549744)"/>
</clipPath>
</defs>
</svg>
