<svg xmlns="http://www.w3.org/2000/svg" xmlns:xlink="http://www.w3.org/1999/xlink" width="152" height="81" viewBox="0 0 152 81"> <defs> <linearGradient id="c" x1="0%" x2="100%" y1="50%" y2="50%"> <stop offset="0%" stop-color="#1D4C84"></stop> <stop offset="100%" stop-color="#1474A4"></stop> </linearGradient> <filter id="b" width="120.4%" height="138.3%" x="-10.9%" y="-14.2%" filterUnits="objectBoundingBox"> <feOffset dx="-1" dy="4" in="SourceAlpha" result="shadowOffsetOuter1"></feOffset> <feGaussianBlur in="shadowOffsetOuter1" result="shadowBlurOuter1" stdDeviation="4.5"></feGaussianBlur> <feColorMatrix in="shadowBlurOuter1" values="0 0 0 0 0 0 0 0 0 0 0 0 0 0 0 0 0 0 0.48 0"></feColorMatrix> </filter> <rect id="a" width="152" height="81" x="0" y="0"></rect> </defs> <g fill="none" fill-rule="evenodd"> <use xlink:href="#a" fill="#000" filter="url(#b)"></use> <use xlink:href="#a" fill="#FFF"></use><rect width="152" height="81" fill="url(#c)"></rect> <path fill="#FFF" d="M0,0 L152,0 L152,46.4 C152,62.248934 141.887386,72 119.353592,72 L0,72 L0,0 Z"></path> <path fill="#0B5ED7" d="M131.588602,29.3411522 C133.845088,29.3411522 136.207514,29.829425 137.875,30.4761905 L137.875,26.0952381 C136.1875,25.547619 133.845088,25 130.803958,25 C125.016293,25 121.09251,27.1473888 121.09251,31.6503209 C121.09251,39.4093826 132.275424,37.8391975 132.275424,41.4417202 C132.275424,42.8271152 130.961025,43.6190476 128.3125,43.6190476 C125.958192,43.6190476 123.1581,43.5398013 121,42.5238095 L121,46.9047619 C123.1581,47.6440995 126.291551,48 128.645859,48 C134.629731,48 139,46.1995651 139,40.657277 C139,33.2677955 127.75,35.4047619 127.75,31.0238095 C127.75,29.3809524 129.528888,29.3411522 131.588602,29.3411522 Z M108,42 L106,42 L106,48 L99,48 L99,25 C99.160008,25 104.561278,25.1100048 107,25 C114.20576,25.1100048 119,27.4121049 119,33 C119,39.5536328 114.304765,41.9997391 108,42 Z M107,29 C106.652109,29.0097672 106.394066,28.987791 106,29 L106,38 L107,38 C110.523754,38 112,36.9311612 112,33 C112,30.5650774 110.338723,29.0097672 107,29 Z M88,25 L95,25 L95,48 L88,48 L88,25 Z M71,48 L71,25 L78,25 L78,43 L85,43 L84,48 L71,48 Z M60,25 L67,25 L67,48 L60,48 L60,25 Z M49,39 L42,39 L42,48 L35,48 L35,25 L42,25 L42,34 L49,34 L49,25 L56,25 L56,48 L49,48 L49,39 Z M22,42 L20,42 L20,48 L13,48 L13,25 C13.160008,25 18.5612781,25.1100048 21,25 C28.2057603,25.1100048 33,27.4121049 33,33 C33,39.5536328 28.3047652,41.9997391 22,42 Z M21,29 C20.652,29.0097672 20.394,28.987791 20,29 L20,38 L21,38 C24.523,38 26,36.9311612 26,33 C26,30.5650774 24.339,29.0097672 21,29 Z"></path> </g> </svg>