<svg width="210" height="283" viewBox="0 0 210 283" fill="none" xmlns="http://www.w3.org/2000/svg">
<path d="M52.1856 5.48154C23.324 22.7689 5.41918 50.5974 2.74681 83.9073C-1.26174 130.288 14.7725 149.262 44.1685 133.24C50.0477 129.866 76.2369 109.628 102.159 88.5454L149.193 49.7541L143.581 40.0563C140.374 34.575 130.486 24.0339 121.4 16.4443C107.504 4.63825 101.624 2.53003 83.4523 1.2651C69.8233 0.421811 58.5993 2.10839 52.1856 5.48154Z" fill="black"/>
<path d="M193.554 4.63789C190.615 7.16776 185.003 8.43269 180.727 6.74611L173.244 4.63789L183.132 27.8283C191.683 48.0672 193.02 50.1754 193.821 41.3209C194.356 35.8395 196.761 27.8283 199.433 23.1902C211.192 1.26474 211.459 -0.000189966 204.778 -0.000189966C201.304 -0.000189966 196.227 2.10803 193.554 4.63789Z" fill="black"/>
<path d="M100.554 118.902C60.4688 160.645 20.9177 201.545 12.9006 209.556C5.15073 217.567 -0.728482 224.735 0.0732282 226C0.874939 227.265 19.8488 217.567 42.5639 204.074C90.6665 175.824 109.106 172.03 120.33 188.895C134.761 210.399 131.554 238.649 112.045 266.056C100.02 282.922 99.7526 283.765 107.502 280.814C118.726 276.597 141.976 251.72 149.993 234.854C168.165 197.328 174.312 149.261 166.295 103.302L161.752 76.3164L168.967 61.1372C172.975 53.126 175.915 45.1147 175.113 44.2714C174.579 43.4281 140.907 76.738 100.554 118.902Z" fill="black"/>
</svg>
