<svg width="396" height="91" viewBox="0 0 396 91" fill="none" xmlns="http://www.w3.org/2000/svg">
<path d="M26.3998 2.73364C11.9998 8.20031 3.06644 17.0003 1.73311 27.5336C-0.266893 42.2003 7.73311 48.2003 22.3998 43.1336C25.3331 42.067 38.3998 35.667 51.3331 29.0003L74.7998 16.7336L71.9998 13.667C70.3998 11.9336 65.4664 8.60031 60.9331 6.20031C53.9998 2.46697 51.0664 1.80031 41.9998 1.40031C35.1998 1.13364 29.5998 1.66697 26.3998 2.73364Z" fill="white"/>
<path d="M96.9341 2.46727C95.4674 3.26727 92.6674 3.66727 90.5341 3.13394L86.8008 2.46727L91.7341 9.8006C96.0008 16.2006 96.6674 16.8673 97.0674 14.0673C97.3341 12.3339 98.5341 9.8006 99.8674 8.33394C105.734 1.4006 105.867 1.0006 102.534 1.0006C100.801 1.0006 98.2674 1.66727 96.9341 2.46727Z" fill="white"/>
<path d="M130.133 3.93365C128.933 5.53365 128 8.20032 128 9.66698C128 15.667 131.333 17.8003 146.667 21.8003C163.733 26.067 166.667 27.667 164.533 31.267C163.2 33.267 160.8 33.667 146.8 34.067C132.267 34.3337 130.533 34.6003 130.933 36.7337C131.333 38.7337 133.333 39.0003 145.333 39.4003C160.8 39.8003 164.133 39.4003 167.2 36.2003C170 33.4003 169.867 25.9337 167.067 23.4003C165.733 22.3337 159.6 20.067 153.333 18.467C134.133 13.4003 133.333 13.1337 133.333 9.66698C133.333 5.53365 135.333 5.00032 152.133 5.00032C164.133 5.00032 166.667 4.60032 166.667 3.00032C166.667 1.26699 163.867 1.00032 149.467 1.00032C133.067 1.00032 132 1.13365 130.133 3.93365Z" fill="white"/>
<path d="M177.467 2.86645C175.467 5.13312 176 38.1998 178 38.7331C178.8 38.8664 179.467 35.7998 179.733 31.9331L180.133 24.9998H193.333C205.467 24.9998 206.8 24.7331 210.533 21.5331C216 16.9998 216.4 9.26645 211.333 4.33312C208.267 1.13312 207.2 0.999782 193.6 0.999782C182.8 0.999782 178.533 1.53312 177.467 2.86645ZM208 7.66645C211.2 10.8664 211.333 12.7331 208.533 16.7331C206.667 19.3998 205.467 19.6664 193.2 19.6664H180V14.4664C180 5.13311 180.267 4.99978 193.467 4.99978C203.6 4.99978 205.733 5.39978 208 7.66645Z" fill="white"/>
<path d="M233.2 3.93321C231.733 5.66654 226.933 13.6665 222.667 21.9332C216.533 33.7999 215.2 37.1332 216.533 38.1999C218.8 40.1999 219.333 39.5332 228.667 21.3999C236.4 6.19987 239.467 3.13321 243.467 6.46654C244.533 7.39987 249.067 14.8665 253.467 23.1332C262 39.1332 263.467 41.1332 264.8 37.7999C265.733 35.3999 250.4 5.26654 247.067 2.59987C243.467 -0.0667949 236.133 0.599872 233.2 3.93321Z" fill="white"/>
<path d="M277.201 4.86697C273.601 8.60031 273.334 9.40031 273.334 19.4003C273.334 28.067 273.867 30.6003 276.134 33.4003C279.867 38.2003 286.667 39.9336 300.001 39.4003C309.467 39.0003 311.334 38.6003 311.734 36.6003C312.134 34.6003 310.801 34.3336 298.267 34.3336C281.067 34.3336 278.667 33.0003 277.601 22.6003C276.801 14.2003 279.201 7.93364 283.601 6.20031C285.334 5.53364 292.534 5.00031 299.467 5.00031C309.734 5.00031 312.001 4.60031 312.001 3.00031C312.001 1.40031 309.334 1.00031 296.534 1.00031C281.334 1.00031 281.067 1.00031 277.201 4.86697Z" fill="white"/>
<path d="M323.733 4.86661C320 8.19995 319.467 9.53328 318.933 17.2666C317.733 35.1333 323.6 40.0666 344.933 39.3999C355.467 39.1333 358 38.5999 358 36.9999C358 35.3999 355.2 34.8666 343.733 34.3333C328.267 33.6666 324 31.6666 324 25.3999C324 22.3333 324.133 22.3333 338.667 22.3333C352.4 22.3333 353.333 22.1999 353.333 19.6666C353.333 17.1333 352.4 16.9999 338.667 16.9999C325.2 16.9999 324 16.7333 324 14.4666C324 13.1333 325.2 10.5999 326.533 8.86661C328.8 5.93328 330.4 5.66661 343.467 4.99995C353.2 4.59995 358 3.79995 358.4 2.59995C358.8 1.39995 355.2 0.999945 343.467 0.999945C328.4 0.999945 328 1.13328 323.733 4.86661Z" fill="white"/>
<path d="M50.5332 38.6003C30.5332 51.8003 10.7998 64.7336 6.79982 67.267C2.93315 69.8003 -0.000182807 72.067 0.399817 72.467C0.799817 72.867 10.2665 69.8003 21.5998 65.5336C45.5998 56.6003 54.7998 55.4003 60.3998 60.7336C67.5998 67.5336 65.9998 76.467 56.2665 85.1336C50.2665 90.467 50.1332 90.7337 53.9998 89.8003C59.5998 88.467 71.1998 80.6003 75.1998 75.267C84.2665 63.4003 87.3332 48.2003 83.3332 33.667L81.0665 25.1336L84.6665 20.3336C86.6665 17.8003 88.1332 15.267 87.7332 15.0003C87.4665 14.7336 70.6665 25.267 50.5332 38.6003Z" fill="white"/>
<path d="M133.334 53.8006C128.934 55.534 128 58.734 128 72.4673C128 90.4673 127.734 90.334 147.334 90.334C162.267 90.334 162.534 90.334 165.334 86.734C167.6 83.934 168 81.934 167.467 78.334C166.534 72.6006 166.534 72.0673 167.467 66.2006C168.134 62.334 167.6 60.734 164.934 57.534C161.734 53.8006 161.067 53.6673 148.4 53.4006C141.2 53.2673 134.4 53.4006 133.334 53.8006ZM159.867 62.734C160.934 64.0673 160.8 65.134 159.6 66.8673C158.267 68.734 156.134 69.0006 146.667 68.734C135.467 68.334 135.334 68.334 134.934 64.6006L134.534 61.0006H146.4C154.667 61.0006 158.8 61.534 159.867 62.734ZM160 77.6673C161.334 79.2673 161.334 80.0673 160 81.6673C158.8 83.134 155.467 83.6673 147.067 83.6673C138.4 83.6673 135.734 83.2673 135.2 81.6673C133.334 76.734 135.467 75.6673 147.067 75.6673C155.467 75.6673 158.8 76.2006 160 77.6673Z" fill="white"/>
<path d="M176.667 56.2006C173.334 59.534 173.2 60.0673 173.6 74.6007L174 89.6673H177.334C180.267 89.6673 180.667 89.0007 181.067 83.934L181.467 78.334H190.534H199.467L202.4 84.334C204.4 88.4673 206.134 90.334 207.867 90.334C212 90.334 212.4 88.2007 209.334 82.4673L206.667 77.134L209.467 72.4673C212.8 66.734 212 61.4006 207.2 56.8673C204.4 54.334 202.267 53.8006 192.134 53.2673C180.667 52.734 180 52.8673 176.667 56.2006ZM202.4 62.2006C203.467 62.734 204 64.734 203.734 66.4673C203.334 69.534 202.8 69.6673 192.4 70.0673L181.334 70.4673V65.6673V61.0006H191.067C196.267 61.0006 201.467 61.534 202.4 62.2006Z" fill="white"/>
<path d="M236.666 54.2006C232.666 55.934 230.533 59.0006 222.799 73.534C215.733 86.8673 215.199 90.334 219.866 90.334C221.999 90.334 224.266 86.8673 229.999 75.6673C235.466 65.0006 238.266 61.0006 239.999 61.0006C241.866 61.0006 244.533 65.0006 250.133 75.6673C255.733 86.4673 258.399 90.334 260.266 90.334C265.066 90.334 264.133 86.334 255.999 71.134C249.199 58.6006 246.933 55.534 243.599 54.4673C241.466 53.6673 239.599 53.0006 239.466 53.134C239.333 53.134 238.133 53.6673 236.666 54.2006Z" fill="white"/>
<path d="M273.333 54.6003C271.6 55.2669 269.6 56.4669 269.067 57.4003C268.533 58.3336 268 66.0669 268 74.7336C268 90.3336 268 90.4669 271.067 90.0669C273.867 89.6669 274 89.0003 274.4 75.2669C274.667 65.6669 275.2 61.0003 276.133 61.2669C276.933 61.5336 281.067 68.0669 285.2 75.6669C293.067 90.2003 294.667 91.6669 302 89.8003C306.667 88.6003 308.133 83.0003 307.733 68.2003C307.333 55.1336 307.333 55.0003 304 55.0003C300.667 55.0003 300.667 55.0003 300.267 69.2669C300.133 77.2669 299.333 83.6669 298.667 83.6669C298 83.6669 295.2 79.4003 292.533 74.0669C282.8 54.7336 280.133 52.0669 273.333 54.6003Z" fill="white"/>
<path d="M314.8 54.8665C313.733 56.0665 313.333 62.1998 313.6 73.1332L314 89.6665L328 90.0665C335.733 90.3332 343.333 90.0665 345.066 89.6665C350 88.4665 353.333 81.5332 353.333 72.3332C353.333 61.9332 350.133 56.3332 343.066 54.4665C335.466 52.3332 316.666 52.5998 314.8 54.8665ZM344.133 63.2665C345.2 64.4665 346 68.4665 346 72.5998C346 82.3332 344 83.6665 330.4 83.6665H320V72.3332V60.9998H331.2C340 60.9998 342.8 61.5332 344.133 63.2665Z" fill="white"/>
<path d="M362.666 53.934C355.866 56.4673 353.6 65.134 358.666 69.6673C360.133 71.0007 367.066 73.6673 374.266 75.6673C383.466 78.2007 387.466 79.934 387.733 81.4007C388.133 83.4007 386.533 83.6673 373.6 83.6673C358.933 83.6673 356.8 84.334 358.266 88.6007C358.666 89.934 363.2 90.334 374.533 90.334C388.533 90.334 390.533 90.0673 392.666 87.6673C395.466 84.4673 395.866 78.0673 393.333 75.0007C392.4 73.934 388.533 72.0673 384.8 71.0007C381.066 69.934 374.533 68.2007 370.266 67.0007C358.666 63.6673 361.066 61.8007 378.133 61.0007C390.933 60.4673 392.666 60.0673 393.066 57.8007C393.333 56.4673 392.8 54.8673 391.733 54.2007C389.866 53.0007 365.866 52.734 362.666 53.934Z" fill="white"/>
</svg>
