<svg width="948" height="1009" viewBox="0 0 948 1009" fill="none" xmlns="http://www.w3.org/2000/svg">
<path d="M414.194 374.749C415.401 378.556 415.952 381.784 415.956 385.013C416.01 436.538 416.002 488.063 415.973 539.588C415.971 542.771 415.672 545.954 415.465 550.043C410.509 549.117 406.521 548.395 402.544 547.625C305.31 528.807 233.612 583.295 211.69 633.47C190.222 682.605 195.352 729.404 229.366 773.266C230.295 774.463 231.073 775.815 232.251 776.788C241.573 784.496 250.55 792.583 260.432 799.7C289.513 820.645 323.097 831.292 360.717 832.66C436.773 835.426 504.122 789.625 523.696 727.393C527.24 716.126 528.966 704.746 528.962 693.038C528.882 469.521 528.898 246.005 528.932 22.4877C528.933 17.0536 529.141 11.6023 529.675 6.19096C530.098 1.89717 531.853 0.613655 536.824 0.217516C539.699 -0.0115545 542.606 0.00971098 545.499 0.0087806C584.381 -0.00331433 623.264 0.00060663 662.146 0.00060663C662.56 0.00060663 662.973 -0.00118745 663.387 0.00200219C676.453 0.10215 676.518 0.0885258 679.679 11.6905C690.948 53.0475 711.796 90.0341 745.284 121.065C754.642 129.736 764.93 137.664 775.135 145.593C783.173 151.838 791.711 157.591 800.091 163.492C802.33 165.069 804.691 166.569 807.19 167.801C848.995 188.406 893.594 200.266 941.803 200.79C942.995 200.803 944.182 201.181 946.018 201.501C946.405 203.457 947.163 205.505 947.165 207.555C947.23 273.228 947.222 338.901 947.226 404.575C947.226 406.689 947.226 408.803 947.226 410.843C934.605 411.854 902.543 406.694 871.537 398.776C846.501 392.383 822.242 384.18 798.771 374.221C775.723 364.441 753.704 353.073 733.103 340.486C729.533 341.282 730.081 343.357 730.086 345.001C730.183 374.022 730.341 403.043 730.484 432.064C730.5 435.329 730.511 438.595 730.511 441.861C730.513 500.28 730.56 558.699 730.49 617.118C730.458 643.601 730.436 670.087 729.99 696.566C727.813 825.906 632.848 941.997 497.907 987.091C448.441 1003.62 397.536 1011.11 344.797 1008.17C259.251 1003.4 184.416 975.905 120.628 925.557C111.717 918.524 102.698 911.555 94.3409 904.034C86.5695 897.04 78.9834 889.755 72.406 881.896C40.1763 843.387 17.1851 801.011 7.25091 753.897C-14.7371 649.616 13.1337 556.648 92.9034 476.676C145.496 423.95 212.156 391.353 289.983 376.274C322.145 370.043 354.748 369.359 387.47 371.65C396.096 372.254 404.68 373.317 414.194 374.749Z" fill="#FDFDFD"/>
</svg>
